<mxfile host="Electron" modified="2024-11-13T21:52:54.765Z" agent="Mozilla/5.0 (X11; Linux x86_64) AppleWebKit/537.36 (KHTML, like Gecko) draw.io/24.6.4 Chrome/124.0.6367.207 Electron/30.0.6 Safari/537.36" etag="1My7gHA2ymXEzV0EgEM7" version="24.6.4" type="device">
  <diagram name="Page-1" id="iidLL6RKF9uN92GS5MeP">
    <mxGraphModel dx="1120" dy="526" grid="1" gridSize="10" guides="1" tooltips="1" connect="1" arrows="1" fold="1" page="1" pageScale="1" pageWidth="827" pageHeight="1169" math="0" shadow="0">
      <root>
        <mxCell id="0" />
        <mxCell id="1" parent="0" />
        <mxCell id="pqh-3Lmt7X_MS8Hs65BD-23" style="rounded=0;orthogonalLoop=1;jettySize=auto;html=1;strokeColor=#CC6600;" edge="1" parent="1" source="6h8p0ZwOAbLh2k5HP3dE-1" target="pqh-3Lmt7X_MS8Hs65BD-20">
          <mxGeometry relative="1" as="geometry" />
        </mxCell>
        <mxCell id="pqh-3Lmt7X_MS8Hs65BD-32" style="edgeStyle=orthogonalEdgeStyle;rounded=0;orthogonalLoop=1;jettySize=auto;html=1;entryX=0;entryY=0.5;entryDx=0;entryDy=0;strokeColor=#3333FF;" edge="1" parent="1" source="6h8p0ZwOAbLh2k5HP3dE-1" target="pqh-3Lmt7X_MS8Hs65BD-33">
          <mxGeometry relative="1" as="geometry">
            <mxPoint x="760" y="267" as="targetPoint" />
          </mxGeometry>
        </mxCell>
        <mxCell id="pqh-3Lmt7X_MS8Hs65BD-37" value="request" style="edgeLabel;html=1;align=center;verticalAlign=bottom;resizable=0;points=[];fontColor=#6666FF;" connectable="0" vertex="1" parent="pqh-3Lmt7X_MS8Hs65BD-32">
          <mxGeometry x="-0.1814" y="4" relative="1" as="geometry">
            <mxPoint as="offset" />
          </mxGeometry>
        </mxCell>
        <mxCell id="6h8p0ZwOAbLh2k5HP3dE-1" value="" style="shape=image;verticalLabelPosition=bottom;verticalAlign=top;imageAspect=0;aspect=fixed;image=data:image/svg+xml,PHN2ZyB4bWxuczp4bGluaz0iaHR0cDovL3d3dy53My5vcmcvMTk5OS94bGluayIgeG1sbnM9Imh0dHA6Ly93d3cudzMub3JnLzIwMDAvc3ZnIiBoZWlnaHQ9IjI1MDAiIHdpZHRoPSIyMTE5IiBzdHJva2UtbGluZWpvaW49InJvdW5kIiBzdHJva2UtbGluZWNhcD0icm91bmQiIHN0cm9rZT0iIzAwMCIgZmlsbC1ydWxlPSJldmVub2RkIiBmaWxsPSIjZmZmIiB2aWV3Qm94PSItMC4xMTk5OTk5OTk5OTk5OTk2MSAtMC43OSA1Ni4xNzE5OTk5OTk5OTk5OSA2NS42MjEwMDAwMDAwMDAwMSI+PHVzZSB5PSIuNSIgeD0iLjUiIHhsaW5rOmhyZWY9IiNhIi8+PHN5bWJvbCBvdmVyZmxvdz0idmlzaWJsZSIgaWQ9ImEiPjxnIGZpbGwtcnVsZT0ibm9uemVybyIgc3Ryb2tlPSJub25lIj48cGF0aCBmaWxsPSIjYzk3ODFmIiBkPSJNOC40NjcgMjUuMTUyczQuNi0zLjk5OCAxOC4yMTItMy45OThjMTIuNDg4IDAgMTUuOTk4IDIuODMgMTkuNTYyIDRsLTE4LjU5NiA5LjA3NXoiLz48cGF0aCBmaWxsPSIjZjZkMmEyIiBkPSJNNi41MjYgMzcuMTg3Yy4wODQgMS43MzUgMS44Mi45MzIgMi42MDUuNC43NDYtLjUxNS45NjQtLjA4NyAxLjAzLTEuMTAzbC4wODItMi4wMDZjLTEuMTMtLjEwMi0yLjM1NS4xNjYtMy4yOC44MzctLjQ3OC4zNDgtMS4zNyAxLjQ1LS40MzUgMS44ODIiLz48cGF0aCBmaWxsPSIjYzZiMTk4IiBkPSJNNi41MjYgMzcuMTg3Yy4yNTMtLjA5My41Mi0uMTYuNjktLjM5Ii8+PHBhdGggZmlsbD0iIzM3YWJjOCIgZD0iTTEwLjUzNSAxNi41MjRjLTYuNjUtMS44Ny0xLjcwNS0xMC4zMTQgMy42MzQtNi44NHptMjkuNTQtNy40NzRjNS4yNjMtMy42OTIgMTAuMDIgNC42MzcgMy45MDIgNi43MzN6Ii8+PHBhdGggZmlsbD0iI2Y2ZDJhMiIgZD0iTTQxLjIxIDU4LjUzNGMxLjMzNy44MjYgMy43OCAzLjMyNCAxLjc3NSA0LjUzNS0xLjkyNyAxLjc2Mi0zLjAwNS0xLjkzNC00LjY5Ni0yLjQ0Ni43MjgtLjk4OCAxLjY1LTEuODg4IDIuOTItMi4wOXptLTIzLjg4MyAyLjgyM2MtMS41Ny4yNDItMi40NTIgMS42NTYtMy43NiAyLjM3NC0xLjIzMy43MzQtMS43MDQtLjIzNS0xLjgxNS0uNDMyLS4xOTYtLjA4OC0uMTc3LjA4Mi0uNDc1LS4yMTgtMS4xNDMtMS44IDEuMTktMy4xMTggMi40MDYtNC4wMTIgMS42OTItLjM0MiAyLjc1MyAxLjEyMyAzLjY0NSAyLjI4OHoiLz48cGF0aCBmaWxsPSIjMDc3ZTkxIiBkPSJNMTAuODEzIDE0LjJjLS44NzctLjQ2LTEuNTItMS4wOTItLjk4NC0yLjEwNi40OTctLjkzOCAxLjQyLS44MzYgMi4yOTctLjM3M3ptMzEuNzgtLjg4Yy44NzctLjQ2MyAxLjUyLTEuMDkzLjk4NC0yLjEwNi0uNDk3LS45MzgtMS40Mi0uODM2LTIuMjk3LS4zNzN6Ii8+PHBhdGggZmlsbD0iI2Y2ZDJhMiIgZD0iTTQ4LjYzIDM2Ljk2NmMtLjA4NCAxLjczNC0xLjgyLjkzMi0yLjYwNS40LS43NDYtLjUxNS0uOTY0LS4wODctMS4wMy0xLjEwM2wtLjA4Mi0yLjAwNmMxLjEzLS4xMDIgMi4zNTUuMTY2IDMuMjguODM3LjQ3OC4zNDggMS4zNyAxLjQ1LjQzNSAxLjg4MiIvPjxwYXRoIGZpbGw9IiNjNmIxOTgiIGQ9Ik00OC42MyAzNi45NjdjLS4yNTMtLjA5My0uNTItLjE2LS42OS0uMzg4Ii8+PHBhdGggZmlsbD0iIzM3YWJjOCIgZD0iTTI2LjkxMiA1LjU0YzYuNjU3IDAgMTIuODk3Ljk1IDE2LjE1IDcuMzM3IDIuOTIgNy4xNiAxLjg4MiAxNC44NzggMi4zMjcgMjIuNDQ0LjM4MyA2LjQ5NiAxLjIzIDE0LTEuNzg4IDIwLjAyMi0zLjE3NSA2LjMzNC0xMS4xMSA3LjkyNy0xNy42NDMgNy42OTMtNS4xMzQtLjE4My0xMS4zMzUtMS44NTYtMTQuMjMyLTYuNTQtMy40LTUuNDk1LTEuOC0xMy42NjYtMS41NDMtMTkuNzguMjkyLTcuMjQzLTEuOTY0LTE0LjUwNy40MTgtMjEuNTk1IDIuNDcyLTcuMzUyIDkuMTM4LTkuMDE0IDE2LjMxMi05LjU4Ii8+PHBhdGggZD0iTTI4LjA4NyAxNC40NjVjMS4xOTUgNi45MzggMTIuNTUgNS4xMDQgMTAuOTItMS44OS0xLjQ2Mi02LjI3NS0xMS4zMTctNC41MzgtMTAuOTIgMS44OW0tMTMuNTcgMS4xMjJjMS41NSA2LjA0IDExLjIzMyA0LjQ5NCAxMC44NjgtMS41NjUtLjQzNS03LjI1Ny0xMi4zNS01Ljg1Ni0xMC44NjggMS41NjVtMTUuNzc1IDYuOTY2Yy4wMDUuOTI3LjIxNyAxLjgzMy4wMzQgMi44NzQtLjIzLjQzNS0uNjgzLjQ4LTEuMDczLjY1N2ExLjU4IDEuNTggMCAwIDEtMS4yMDktLjk0MmMtLjE0LTEuMDk1LjA1Mi0yLjE1Ni4wODctMy4yNXoiLz48cGF0aCBmaWxsPSIjMDAwIiBkPSJNMTUuNTUzIDE0LjYwMmMwLS45OC43My0xLjc3IDEuNjM1LTEuNzdzMS42MzUuNzkgMS42MzUgMS43Ny0uNzMgMS43Ny0xLjYzNSAxLjc3LTEuNjM1LS43OS0xLjYzNS0xLjc3eiIvPjxwYXRoIGQ9Ik0xNy41NDYgMTVjMC0uMjUuMTcyLS40NS4zODYtLjQ1cy4zODUuMi4zODUuNDUtLjE3Mi40NS0uMzg1LjQ1LS4zODYtLjItLjM4Ni0uNDV6Ii8+PHBhdGggZmlsbD0iIzAwMCIgZD0iTTI5LjI4IDE0LjE2MmMwLS45OC43MTctMS43NyAxLjYwOC0xLjc3czEuNjA4Ljc5IDEuNjA4IDEuNzctLjcxNyAxLjc3LTEuNjA4IDEuNzctMS42MDgtLjc5LTEuNjA4LTEuNzd6Ii8+PHBhdGggZD0iTTMxLjI0IDE0LjU2YzAtLjI1LjE3LS40NS4zOC0uNDVzLjM4LjIuMzguNDUtLjE3LjQ1LS4zOC40NS0uMzgtLjItLjM4LS40NXptLTUuNjIgOC4xMzJjLS43MTMgMS43MjcuMzk4IDUuMTggMi4zMzQgMi42My0uMTQtMS4wOTUuMDUyLTIuMTU2LjA4Ni0zLjI1eiIvPjxwYXRoIGZpbGw9IiNmNmQyYTIiIGQ9Ik0yNS41MDYgMTkuMzY3Yy0xLjMzLjExMy0yLjQxNyAxLjY5Mi0xLjcyNSAyLjk0Mi45MTYgMS42NTIgMi45Ni0uMTQ2IDQuMjMyLjAyMiAxLjQ2NS4wMyAyLjY2NSAxLjU0NyAzLjg0Mi4yNzQgMS4zMS0xLjQxMy0uNTYzLTIuNzk0LTIuMDI2LTMuNHoiLz48cGF0aCBmaWxsPSIjZWY5MzI1IiBkPSJNOC40NjcgMjUuMTUybC4zOTIgNi41MTdjLS4wMyAxLjk2MyAxLjg1NC43MjMgMS45NTIgMy44MXMtMS4xNCAyLjUwMi0xLjc5NCA0LjAxMy0xLjA5NiA4LjU4Ny0xLjA5NiA4LjU4Ny42NyAxLjMyMiAyLjc2IDIuNTEzIDUuNDU3IDEuODYgOC4zNjcgMS43MjggNC45OTItLjc1NSA1LjUxMy0xLjEgMS4zODMtMS40MzQgMS43MDgtMi4yNzcgMS4wMDMtNy43ODUuOTU2LTExLjc1Ny0uNzA1LTcuNjM3LS43MDUtNy42Mzd6Ii8+PHBhdGggZmlsbD0iI2U1ZTVlNSIgZD0iTTI2LjkxNCA0NC40OTNjLTguNTc2Ljk1Ni0xOC41MjctMS42ODctMTguNTI3LTEuNjg3cy4xNDYtMi42OC44LTMuNjI0YzguOTIgMi43NiAxNy45MTggMS44ODUgMTcuOTE4IDEuODg1LjEzMyAxLjI1LjA0IDIuMjQ2LS4xOCAzLjQyNnptLTEuMDc3IDUuMjgzYy04LjU3Ni45NTYtMTcuOTEzLTEuNzkzLTE3LjkxMy0xLjc5M3MtLjAzLTIuNTc1LjMxLTMuNzA2YzguOTIgMi43NiAxOC40NDYgMi4wNzIgMTguNDQ2IDIuMDcyLS4wOCAxLjM2LS4yNzIgMi42OTYtLjg0NCAzLjQyNnoiLz48cGF0aCBmaWxsPSIjZWY5MzI1IiBkPSJNNDYuMjQyIDI1LjE1MmwtLjAzIDYuNTE3Yy4wMyAxLjk2My0xLjE0LjcyMy0xLjI0IDMuODFzMS4xNTUgMi41MDIgMS44MTYgNC4wMTMgMS4xIDguNTg3IDEuMSA4LjU4Ny0uNjc4IDEuMzIyLTIuNzk2IDIuNTEzLTUuNTIzIDEuODYtOC40NzIgMS43MjgtNS4wNTUtLjc1NS01LjU4Mi0xLjEtMS40LTEuNDM0LTEuNzMtMi4yNzctMS4wMTYtNy43ODUtLjk2Ny0xMS43NTcuNzEzLTcuNjM3LjcxMy03LjYzN3oiLz48cGF0aCBmaWxsPSIjZTVlNWU1IiBkPSJNMjguNjY3IDQ0LjQ5M2M4LjY4NC45NTYgMTguNzYyLTEuNjg3IDE4Ljc2Mi0xLjY4N3MtLjE0OC0yLjY4LS44LTMuNjI0Yy05LjAzMiAyLjc2LTE4LjE0MyAxLjg4NS0xOC4xNDMgMS44ODUtLjEzNSAxLjI1LS4wNCAyLjI0Ni4xODMgMy40MjZ6bTEuMDkzIDUuMjgzYzguNjg0Ljk1NiAxOC4xMzgtMS43OTMgMTguMTM4LTEuNzkzcy4wMy0yLjU3NS0uMzE1LTMuNzA2Yy05LjAzIDIuNzYtMTguNjc4IDIuMDcyLTE4LjY3OCAyLjA3Mi4wOCAxLjM2LjI3NSAyLjY5Ni44NTUgMy40MjZ6Ii8+PHBhdGggZmlsbD0iI2QyZTI2MSIgZD0iTTQ5LjcwNSAzMy41MDRjLS4yNy41MS0uODA0Ljc1NC0xLjE5My41NDhsLS4zMTItLjE2NWMtLjM5LS4yMDYtLjQ4Ni0uNzgzLS4yMTYtMS4yOTRsNi4wNzctMTEuNDU1Yy4yNy0uNTEuODA0LS43NTQgMS4xOTMtLjU0OGwuMzEyLjE2NWMuMzkuMjA2LjQ4Ni43ODMuMjE2IDEuMjk0eiIvPjxwYXRoIGZpbGw9IiMwMDAiIGQ9Ik00Ni44MzYgMzguOTE0Yy0uMTU3LjI5Ni0uNi4zNy0uOTkuMTY0bC0uMzEyLS4xNjVjLS4zOS0uMjA2LS41NzctLjYxMy0uNDItLjkxbDIuODUtNS4zNzRjLjE1Ny0uMjk2LjYtLjM3Ljk5LS4xNjRsLjMxMi4xNjVjLjM5LjIwNi41NzcuNjEzLjQyLjkxeiIvPjxwYXRoIGZpbGw9IiM5YjliOWIiIGQ9Ik00OS4zNyAzMi40MzVsLS4zMTItLjE2NWMtLjM5LS4yMDYtLjc4Ny0uMjE3LS44OS0uMDI1bC0uMTgyLjM0M2MuMTAyLS4xOTIuNS0uMTguODkuMDI1bC4zMTIuMTY1Yy4zOS4yMDYuNjIyLjUyOC41Mi43MmwuMTgyLS4zNDNjLjEwMi0uMTkyLS4xMy0uNTE1LS41Mi0uNzJ6Ii8+PHBhdGggZmlsbD0iI2Y2ZDJhMiIgZD0iTTQ1LjU1IDM1LjA3NmMuMi0uNTM3LjkyLS43NiAxLjYxNC0uNTAyczEuMDkzLjkuODkzIDEuNDM1LS45Mi43Ni0xLjYxNC41MDItMS4wOTMtLjktLjg5My0xLjQzNXoiLz48cGF0aCBmaWxsPSIjZDJlMjYxIiBkPSJNNS42NyAzMy42ODdjLjI0Ni41Mi43Ny44IDEuMTY3LjYwMmwuMzItLjE1Yy4zOTgtLjE4OC41Mi0uNzYyLjI3NS0xLjI4MmwtNS41NDUtMTEuNzJjLS4yNDYtLjUyLS43NjgtLjgtMS4xNjctLjYwMmwtLjMyLjE1Yy0uMzk4LjE4OC0uNTIuNzYyLS4yNzUgMS4yODJ6Ii8+PHBhdGggZmlsbD0iIzAwMCIgZD0iTTguMyAzOS4yMjVjLjE0My4zMDMuNTgzLjM5Ny45NzguMjFsLjMyLS4xNWMuMzk4LS4xODguNjA0LS41ODYuNDYtLjg5bC0yLjYtNS40OTdjLS4xNDMtLjMwMy0uNTgzLS4zOTYtLjk3OC0uMjFsLS4zMi4xNWMtLjM5OC4xODgtLjYwNC41ODYtLjQ2Ljg5eiIvPjxwYXRoIGZpbGw9IiM5YjliOWIiIGQ9Ik02LjA1NSAzMi42MzdsLjMyLS4xNWMuMzk4LS4xODguNzk2LS4xOC44OS4wMTZsLjE2Ni4zNTJjLS4wOTMtLjE5Ny0uNDktLjIwMy0uODktLjAxNmwtLjMyLjE1Yy0uMzk4LjE4OC0uNjQ2LjUtLjU1My42OTZsLS4xNjYtLjM1MmMtLjA5My0uMTk2LjE1Mi0uNTA4LjU1My0uNjk2eiIvPjxwYXRoIGZpbGw9IiNmNmQyYTIiIGQ9Ik0xMCAzNS4yMjZjLjIuNTM3LS4yIDEuMTc3LS44OTMgMS40MzVzLTEuNDE1LjAzNS0xLjYxNC0uNTAyLjItMS4xNzcuODkzLTEuNDM1UzkuOCAzNC42OSAxMCAzNS4yMjZ6Ii8+PHBhdGggZmlsbD0iIzk2MDAwMCIgZD0iTTExLjMxNiAxOS4xMjZjLS4yNjQuNDgtLjg4OC42NDQtMS4zOTMuMzY3bC0uNTgtLjMyYy0uNTA1LS4yNzctLjctLjg5LS40MzYtMS4zN0wxNC45NSA2LjgyNWMuMjY0LS40OC44ODgtLjY0NCAxLjM5My0uMzY3bC41OC4zMmMuNTA1LjI3Ny42MzUuNzk2LjQzNiAxLjM3LTIuMTE4IDYuMS02LjA0NSAxMC45NzgtNi4wNDUgMTAuOTc4eiIvPjxwYXRoIGZpbGw9IiM1OTU5NTkiIGQ9Ik0xMi45MTUgMTIuODU2YzEuODM4LTMuMzM4IDMuMDQ0LTYuMiAyLjc1OC02LjUzNWwuMDA2LS4wMTItLjAyMi0uMDEtLjAwMy0uMDAyQzEyLjgyOCA0Ljc2NyA5LjAyNyA2LjI4IDcuMTUgOS42OXMtMS4xMjIgNy40MjYgMS42ODQgOC45OWgtLjAwMWMuMDEyLjAwNC4wMTguMDEuMDI2LjAxNGwuMDA3LS4wMTJjLjQzLjA2OCAyLjItMi40ODggNC4wNDgtNS44MjZ6Ii8+PHBhdGggZmlsbD0iIzk2MDAwMCIgZD0iTTQzLjIwNyAxOS4xNWMuMjUuNDg3Ljg3LjY3IDEuMzgyLjQwN2wuNi0uMzA0Yy41MTMtLjI2My43MjYtLjg3LjQ3NS0xLjM1OEwzOS45MyA2Ljc0NmMtLjI1LS40ODctLjg3LS42Ny0xLjM4Mi0uNDA3bC0uNi4zMDRjLS41MTMuMjYzLS42NTguNzc4LS40NzUgMS4zNTggMS45NCA2LjE2IDUuNzI1IDExLjE0OCA1LjcyNSAxMS4xNDh6Ii8+PHBhdGggZmlsbD0iIzU5NTk1OSIgZD0iTTQxLjc5IDEyLjgzOGMtMS43NC0zLjQtMi44NjUtNi4yOTUtMi41NjgtNi42MTJsLS4wMDctLjAxMmMuMDA4LS4wMDQuMDE3LS4wMDYuMDI0LS4wMWwuMDAzLS4wMDFjMi44Ny0xLjQ0NiA2LjYyMy4xNzQgOC40IDMuNjRzLjkwNyA3LjQ1NC0xLjk0MyA4LjkzNnYuMDAyYy0uMDEyLjAwNC0uMDIuMDEtLjAyNy4wMTRsLS4wMDctLjAxMmMtLjQzLjA1Ni0yLjEzOC0yLjU1LTMuODgtNS45NHoiLz48cGF0aCBmaWxsPSIjMzUzNTM1IiBkPSJNNDcuNDU3IDExLjQwNnMtMi4xMTUtNS4zLTQuNTY4LTguMDg3LTI2LjQ1My0zLjc1LTMwLjM5NCAwLTUuNDI3IDguMDg4LTUuNDI3IDguMDg4di0xLjE3NFM4Ljg5IDUuMDggMTIuNDk1IDIuMTQ1czI3LjI4OC0yLjc4MyAzMC4zNDQgMCA0LjYxOCA4LjA4NyA0LjYxOCA4LjA4N3oiLz48cGF0aCBmaWxsPSIjOTYwMDAwIiBkPSJNNDguMTY1IDkuNjM4Yy41Ljk5Ni41OTMgMS45NjcuMTg1IDIuMTc2cy0xLjE0OC0uNDI0LTEuNjYtMS40Mi0uNTkzLTEuOTY2LS4xODUtMi4xNzYgMS4xNDguNDI0IDEuNjYgMS40MnpNNi42MzggOS40OGMuNTQtLjk4IDEuMjk3LTEuNTkzIDEuNy0xLjM3MnMuMjkyIDEuMi0uMjQ4IDIuMTctMS4yOTcgMS41OTMtMS43IDEuMzctLjI5Mi0xLjIuMjQ4LTIuMTd6Ii8+PHBhdGggb3BhY2l0eT0iLjYiIGQ9Ik0zOC40MTQgMTAuMjlIMTYuMDNjLTQuMDIgMC00LjAwNSAxMC42NjYtLjIzMiAxMS4yOGw3LjgwNS0uNWMuOTQ0IDAgMi44MjctMy42NSAzLjE4LTMuOTM2czEuNTE4LS4zMjIgMS45NzYgMCAxLjUgMy41NjggMi40NDQgMy41NjhsNy44MDUuODdjMy42NDUtMS42NzUgMi43MjYtMTEuMjgtLjU4Ny0xMS4yOHoiLz48cGF0aCBvcGFjaXR5PSIuNSIgZD0iTTIxLjk3MiAxMi40OTVsLTguNDMtLjAxNWMtLjM1MyAxLjE1Ny0uNzQ3IDIuNjItLjU1MiA0LjA0NGw5LjAzMy4wMWMxLjc4IDAgMy4yOC4zMzYgNC42NzQuN2EuNzkuNzkgMCAwIDEgLjA4Ni0uMDk0Yy4zNTMtLjI4NyAxLjUxNy0uMzIyIDEuOTc2IDAgLjExOC4wODMuMjc3LjM2NC40NjIuNzMyYTEwLjkyIDEwLjkyIDAgMCAwIDIuMTY0LjI2Mmw5Ljc4Mi4wMWMuMzg3LTEuMjkyLjEwMi0yLjY3OC4wMTUtMy45OC0yLjk2OCAwLTcuNjg2LS4wNjctOS45NDgtLjA2Ny0zLjE4NyAwLTUuOTctMS41MjYtOS4yNTgtMS42eiIvPjxwYXRoIGZpbGw9IiMwMDAiIGQ9Ik0yNS4zMzggMTkuMjk3Yy0uMDk4LTIuMyA0LjI5NC0yLjU4OCA0LjgxMy0uNjYycy00LjU5NiAyLjM3LTQuODEyLjY2MmMtLjE3My0xLjM2IDAgMCAwIDB6Ii8+PC9nPjwvc3ltYm9sPjwvc3ZnPg==;" parent="1" vertex="1">
          <mxGeometry x="500" y="232" width="59.32" height="70" as="geometry" />
        </mxCell>
        <mxCell id="pqh-3Lmt7X_MS8Hs65BD-26" style="edgeStyle=orthogonalEdgeStyle;rounded=0;orthogonalLoop=1;jettySize=auto;html=1;entryX=0.5;entryY=1;entryDx=0;entryDy=0;strokeColor=#CC6600;" edge="1" parent="1" source="pqh-3Lmt7X_MS8Hs65BD-1" target="pqh-3Lmt7X_MS8Hs65BD-2">
          <mxGeometry relative="1" as="geometry" />
        </mxCell>
        <mxCell id="pqh-3Lmt7X_MS8Hs65BD-31" value="SIGN" style="edgeLabel;html=1;align=right;verticalAlign=top;resizable=0;points=[];horizontal=1;fontColor=#CC6600;" connectable="0" vertex="1" parent="pqh-3Lmt7X_MS8Hs65BD-26">
          <mxGeometry x="0.0725" y="-2" relative="1" as="geometry">
            <mxPoint as="offset" />
          </mxGeometry>
        </mxCell>
        <mxCell id="pqh-3Lmt7X_MS8Hs65BD-1" value="Lets Encrypt" style="shape=image;verticalLabelPosition=bottom;verticalAlign=top;imageAspect=0;aspect=fixed;image=data:image/svg+xml,PHN2ZyB4bWxucz0iaHR0cDovL3d3dy53My5vcmcvMjAwMC9zdmciIHdpZHRoPSIyMzkwIiB2aWV3Qm94PSIuNTgyNzA5NzQgLjI1ODcwOTc0IDYzLjc3MzU4MDU4IDY3LjIxMzY5OTAzIiBoZWlnaHQ9IjI1MDAiPjxnIGZpbGw9Im5vbmUiPjxwYXRoIGZpbGw9IiNmOWExMWQiIGQ9Im00Ni40ODkgMzYuNTY4aC04LjA0di00LjEyOGE1Ljk4NiA1Ljk4NiAwIDAgMCAtNS45OC01Ljk3OSA1Ljk4NiA1Ljk4NiAwIDAgMCAtNS45NzkgNS45Nzl2NC4xMjhoLTguMDR2LTQuMTI4YzAtNy43MyA2LjI4OS0xNC4wMiAxNC4wMi0xNC4wMnMxNC4wMiA2LjI4OSAxNC4wMiAxNC4wMnY0LjEyOHoiLz48cGF0aCBmaWxsPSIjMmMzYzY5IiBkPSJtNDkuNzMyIDM2LjU2OGgtMzQuNTI1YTIuNjg4IDIuNjg4IDAgMCAwIC0yLjY4IDIuNjh2MjUuNTRhMi42ODggMi42ODggMCAwIDAgMi42OCAyLjY4aDM0LjUyNWEyLjY4OCAyLjY4OCAwIDAgMCAyLjY4LTIuNjh2LTI1LjU0YTIuNjg4IDIuNjg4IDAgMCAwIC0yLjY4LTIuNjh6bS0xNS41MTMgMTYuNzY5djMuNDYxYTEuNzUgMS43NSAwIDAgMSAtMy40OTggMHYtMy40NmEzLjU1MiAzLjU1MiAwIDEgMSAzLjQ5OC0uMDAxeiIvPjxwYXRoIGZpbGw9IiNmOWExMWQiIGQ9Im0xMS43MDcgMzIuNzZoLTguMzMxYTIuNDQ2IDIuNDQ2IDAgMSAxIDAtNC44OTJoOC4zMzFhMi40NDYgMi40NDYgMCAxIDEgMCA0Ljg5MnptNS44NjgtMTMuMTA1YTIuNDMzIDIuNDMzIDAgMCAxIC0xLjU1Mi0uNTU3bC02LjU5LTUuNDE5YTIuNDQ2IDIuNDQ2IDAgMCAxIDMuMTA4LTMuNzc5bDYuNTkgNS40MTlhMi40NDYgMi40NDYgMCAwIDEgLTEuNTU2IDQuMzM2em0xNC44OTQtNS43NmEyLjQ0NiAyLjQ0NiAwIDAgMSAtMi40NDYtMi40NDZ2LTguMzk3YTIuNDQ2IDIuNDQ2IDAgMSAxIDQuODkyIDB2OC4zOTdhMi40NDYgMi40NDYgMCAwIDEgLTIuNDQ2IDIuNDQ2em0xNC44OTQgNS43NmEyLjQ0NyAyLjQ0NyAwIDAgMSAtMS41NTYtNC4zMzZsNi41OS01LjQxOWEyLjQ0NyAyLjQ0NyAwIDAgMSAzLjEwOCAzLjc3OWwtNi41OSA1LjQxOWMtLjQzNy4zNi0uOTg2LjU1OC0xLjU1Mi41NTd6bTE0LjIgMTMuMTA1aC04LjQxYTIuNDQ2IDIuNDQ2IDAgMSAxIDAtNC44OTJoOC40MWEyLjQ0NiAyLjQ0NiAwIDEgMSAwIDQuODkyeiIvPjwvZz48L3N2Zz4=;fontColor=#CC6600;" parent="1" vertex="1">
          <mxGeometry x="420" y="500" width="54.21" height="56.71" as="geometry" />
        </mxCell>
        <mxCell id="pqh-3Lmt7X_MS8Hs65BD-2" value="" style="shape=image;verticalLabelPosition=bottom;verticalAlign=top;imageAspect=0;aspect=fixed;image=data:image/svg+xml,PHN2ZyB4bWxuczp4bGluaz0iaHR0cDovL3d3dy53My5vcmcvMTk5OS94bGluayIgeG1sbnM9Imh0dHA6Ly93d3cudzMub3JnLzIwMDAvc3ZnIiB2ZXJzaW9uPSIxLjEiIHZpZXdCb3g9IjAgMCA3MyA3MyIgaGVpZ2h0PSI4MDBweCIgd2lkdGg9IjgwMHB4Ij4mI3hhOyAgICAmI3hhOyAgICA8dGl0bGU+cHJvZ3Jlc3NpdmUtd2ViYXBwcy9zZWN1cml0eS9odHRwczwvdGl0bGU+JiN4YTsgICAgPGRlc2M+Q3JlYXRlZCB3aXRoIFNrZXRjaC48L2Rlc2M+JiN4YTsgICAgPGRlZnM+JiN4YTsmI3hhOzwvZGVmcz4mI3hhOyAgICA8ZyBmaWxsLXJ1bGU9ImV2ZW5vZGQiIGZpbGw9Im5vbmUiIHN0cm9rZS13aWR0aD0iMSIgc3Ryb2tlPSJub25lIiBpZD0icHJvZ3Jlc3NpdmUtd2ViYXBwcy9zZWN1cml0eS9odHRwcyI+JiN4YTsgICAgICAgIDxnIHN0cm9rZS13aWR0aD0iMiIgc3Ryb2tlPSIjMDQ2NzNFIiBmaWxsLXJ1bGU9Im5vbnplcm8iIGZpbGw9IiNGRkZGRkYiIHRyYW5zZm9ybT0idHJhbnNsYXRlKDIuMDAwMDAwLCAyLjAwMDAwMCkiIGlkPSJjb250YWluZXIiPiYjeGE7ICAgICAgICAgICAgPHJlY3Qgcng9IjE0IiBoZWlnaHQ9IjcxIiB3aWR0aD0iNzEiIHk9Ii0xIiB4PSItMSIgaWQ9Im1hc2siPiYjeGE7JiN4YTs8L3JlY3Q+JiN4YTsgICAgICAgIDwvZz4mI3hhOyAgICAgICAgPGcgZmlsbC1ydWxlPSJub256ZXJvIiB0cmFuc2Zvcm09InRyYW5zbGF0ZSgxNy4wMDAwMDAsIDEzLjAwMDAwMCkiIGlkPSJzaGllbGQiPiYjeGE7ICAgICAgICAgICAgPHBhdGggZmlsbD0iIzAwREQ4MCIgaWQ9IlNoYXBlIiBkPSJNMzcuMTkwNzg5LDMwLjc1MzYzNzkgQzM1Ljk1Mjk3LDM0LjEwODM2MyAzNC4wODA5NTc1LDM3LjAyNTMwMTUgMzEuNjI2MDQ5MSwzOS40MjI1ODc3IEMyOC44MzE3MzMyLDQyLjE1MTIwMDUgMjUuMTcyNzM1Nyw0NC4zMTk0MDQyIDIwLjc1MDU5ODEsNDUuODY2MDYzMiBDMjAuNjA1NDg5MSw0NS45MTY2NTgxIDIwLjQ1NDA1NTYsNDUuOTU4MTE3OSAyMC4zMDE5MTk1LDQ1Ljk4ODY4NTYgQzIwLjEwMDk0NTEsNDYuMDI4Mzg4NiAxOS44OTY0NTczLDQ2LjA0OTgyMTIgMTkuNjkzNzI2Miw0Ni4wNTI2MzIgTDE5LjY1NDAyMzIsNDYuMDUyNjMyIEMxOS40Mzc5NDA3LDQ2LjA1MjYzMiAxOS4yMjA4MDQxLDQ2LjAzMDg0OCAxOS4wMDU0MjQzLDQ1Ljk4ODY4NTYgQzE4Ljg1MzI4ODIsNDUuOTU4MTE3OSAxOC43MDM5NjI4LDQ1LjkxNjY1ODEgMTguNTU5NTU2NSw0NS44NjcxMTczIEMxNC4xMzIxNDg1LDQ0LjMyMjkxNzcgMTAuNDY4NTgzNSw0Mi4xNTU3NjgxIDcuNjcxNDU2NjIsMzkuNDI3MTU1MyBDNS4yMTU0OTQzMSwzNy4wMjk4NjkgMy4zNDM4MzMxMywzNC4xMTQ2ODc0IDIuMTA3NzcwODYsMzAuNzU5OTYyMyBDLTAuMTM5ODM4ODE3LDI0LjY2MDQ2MjEgLTAuMDExOTQ1OTgwOCwxNy45NDExNzM5IDAuMDkxMDAwNjMwNSwxMi41NDE1NzAzIEwwLjA5Mjc1NzM3NjUsMTIuNDU4NjUwOCBDMC4xMTM0ODcyNjcsMTIuMDEyNzgzIDAuMTI2ODM4NjYzLDExLjU0NDQyODUgMC4xMzQyMTcxNTgsMTEuMDI3MjM1OCBDMC4xNzE4MTE5MzYsOC40ODgwMDI3IDIuMTkwNjkwMzMsNi4zODcyNTg5MSA0LjczMDI3NDg3LDYuMjQ1NjYzMzUgQzEwLjAyNTE3NTEsNS45NTAxNzQ5MSAxNC4xMjEyNTY1LDQuMjIzMjcxNDYgMTcuNjIxMDkwNywwLjgxMTk3ODQyMSBMMTcuNjUxNjU4NSwwLjc4Mzg3MDEyNSBDMTguMjMyNzk3NSwwLjI1MDg2NjQ5NiAxOC45NjUwMTg2LC0wLjAxMDU0MDY1NTkgMTkuNjkzNzI2MiwwLjAwMDM1MTM1MzY5OSBDMjAuMzk2NDMzNiwwLjAwOTQ4NjU3MjM2IDIxLjA5NjMzMDIsMC4yNzA1NDIzMDMgMjEuNjU2NzM5MywwLjc4Mzg3MDEyNSBMMjEuNjg2NjA0NCwwLjgxMTk3ODQyMSBDMjUuMTg3MTQxMyw0LjIyMzI3MTQ2IDI5LjI4MzIyMjcsNS45NTAxNzQ5MSAzNC41NzgxMjMsNi4yNDU2NjMzNSBDMzcuMTE3NzA3NCw2LjM4NzI1ODkxIDM5LjEzNjU4NTgsOC40ODgwMDI3IDM5LjE3NDE4MDcsMTEuMDI3MjM1OCBDMzkuMTgxNTU5MSwxMS41NDc5NDIgMzkuMTk0OTEwNSwxMi4wMTU1OTM4IDM5LjIxNTY0MDQsMTIuNDU4NjUwOCBMMzkuMjE2Njk0NSwxMi40OTM3ODYyIEMzOS4zMTkyODk3LDE3LjkwMzU3OTEgMzkuNDQ2NDc5OCwyNC42MzYyMTg3IDM3LjE5MDc4OSwzMC43NTM2Mzc5IFoiPiYjeGE7JiN4YTs8L3BhdGg+JiN4YTsgICAgICAgICAgICA8cGF0aCBmaWxsPSIjMDBBQTYzIiBpZD0iU2hhcGUiIGQ9Ik0zNy4xOTA3ODksMzAuNzUzNjM3OSBDMzUuOTUyOTcsMzQuMTA4MzYzIDM0LjA4MDk1NzUsMzcuMDI1MzAxNSAzMS42MjYwNDkxLDM5LjQyMjU4NzcgQzI4LjgzMTczMzIsNDIuMTUxMjAwNSAyNS4xNzI3MzU3LDQ0LjMxOTQwNDIgMjAuNzUwNTk4MSw0NS44NjYwNjMyIEMyMC42MDU0ODkxLDQ1LjkxNjY1ODEgMjAuNDU0MDU1Niw0NS45NTgxMTc5IDIwLjMwMTkxOTUsNDUuOTg4Njg1NiBDMjAuMTAwOTQ1MSw0Ni4wMjgzODg2IDE5Ljg5NjQ1NzMsNDYuMDQ5ODIxMiAxOS42OTM3MjYyLDQ2LjA1MjYzMiBMMTkuNjkzNzI2MiwwLjAwMDM1MTM1MzY5OSBDMjAuMzk2NDMzNiwwLjAwOTQ4NjU3MjM2IDIxLjA5NjMzMDIsMC4yNzA1NDIzMDMgMjEuNjU2NzM5MywwLjc4Mzg3MDEyNSBMMjEuNjg2NjA0NCwwLjgxMTk3ODQyMSBDMjUuMTg3MTQxMyw0LjIyMzI3MTQ2IDI5LjI4MzIyMjcsNS45NTAxNzQ5MSAzNC41NzgxMjMsNi4yNDU2NjMzNSBDMzcuMTE3NzA3NCw2LjM4NzI1ODkxIDM5LjEzNjU4NTgsOC40ODgwMDI3IDM5LjE3NDE4MDcsMTEuMDI3MjM1OCBDMzkuMTgxNTU5MSwxMS41NDc5NDIgMzkuMTk0OTEwNSwxMi4wMTU1OTM4IDM5LjIxNTY0MDQsMTIuNDU4NjUwOCBMMzkuMjE2Njk0NSwxMi40OTM3ODYyIEMzOS4zMTkyODk3LDE3LjkwMzU3OTEgMzkuNDQ2NDc5OCwyNC42MzYyMTg3IDM3LjE5MDc4OSwzMC43NTM2Mzc5IFoiPiYjeGE7JiN4YTs8L3BhdGg+JiN4YTsgICAgICAgICAgICA8cGF0aCBmaWxsPSIjRkZGRkZGIiBpZD0iU2hhcGUiIGQ9Ik0zMS4xMzA2NDA0LDIzLjAyNjMxNiBDMzEuMTMwNjQwNCwyOS4zNDExOTYgMjYuMDAzMzM1OSwzNC40ODE1MDA3IDE5LjY5MzcyNjIsMzQuNTAzOTg3MyBMMTkuNjUzMzIwNSwzNC41MDM5ODczIEMxMy4zMjUwODksMzQuNTAzOTg3MyA4LjE3NTY0OTIsMjkuMzU0ODk4OCA4LjE3NTY0OTIsMjMuMDI2MzE2IEM4LjE3NTY0OTIsMTYuNjk4MDg0NSAxMy4zMjUwODksMTEuNTQ4OTk2MSAxOS42NTMzMjA1LDExLjU0ODk5NjEgTDE5LjY5MzcyNjIsMTEuNTQ4OTk2MSBDMjYuMDAzMzM1OSwxMS41NzE0ODI4IDMxLjEzMDY0MDQsMTYuNzExNzg3MyAzMS4xMzA2NDA0LDIzLjAyNjMxNiBaIj4mI3hhOyYjeGE7PC9wYXRoPiYjeGE7ICAgICAgICAgICAgPHBhdGggZmlsbD0iI0UxRUJGMCIgaWQ9IlNoYXBlIiBkPSJNMzEuMTMwNjQwNCwyMy4wMjYzMTYgQzMxLjEzMDY0MDQsMjkuMzQxMTk2IDI2LjAwMzMzNTksMzQuNDgxNTAwNyAxOS42OTM3MjYyLDM0LjUwMzk4NzMgTDE5LjY5MzcyNjIsMTEuNTQ4OTk2MSBDMjYuMDAzMzM1OSwxMS41NzE0ODI4IDMxLjEzMDY0MDQsMTYuNzExNzg3MyAzMS4xMzA2NDA0LDIzLjAyNjMxNiBaIj4mI3hhOyYjeGE7PC9wYXRoPiYjeGE7ICAgICAgICAgICAgPHBhdGggZmlsbD0iI0I0RDJENyIgaWQ9IlNoYXBlIiBkPSJNMjQuODYyODQxOCwyMS4zNzM1NDgyIEwxOS42OTM3MjYyLDI2LjU0MzM2NjUgTDE4LjU3Njc3MjgsMjcuNjYwMzE5OSBDMTguMzEyOTA2MSwyNy45MjQxODY2IDE3Ljk2NjgyMjcsMjguMDU1OTQ0MiAxNy42MjEwOTA3LDI4LjA1NTk0NDIgQzE3LjI3NTAwNzMsMjguMDU1OTQ0MiAxNi45MjkyNzUzLDI3LjkyNDE4NjYgMTYuNjY1MDU3MywyNy42NjAzMTk5IEwxNC4yNjM1NTQ4LDI1LjI1Nzc2MzQgQzEzLjczNTgyMTUsMjQuNzMwMDMwMSAxMy43MzU4MjE1LDIzLjg3NTE4NjUgMTQuMjYzNTU0OCwyMy4zNDcxMDE5IEMxNC43OTA1ODUzLDIyLjgxOTM2ODcgMTUuNjQ2NDgyOSwyMi44MTkzNjg3IDE2LjE3NDIxNjEsMjMuMzQ3MTAxOSBMMTcuNjIxMDkwNywyNC43OTM5NzY1IEwyMi45NTIxODA0LDE5LjQ2Mjg4NjggQzIzLjQ3OTkxMzcsMTguOTM0ODAyMiAyNC4zMzU4MTEzLDE4LjkzNDgwMjIgMjQuODYyODQxOCwxOS40NjI4ODY4IEMyNS4zOTA1NzUsMTkuOTkwNjIwMSAyNS4zOTA1NzUsMjAuODQ2NTE3NyAyNC44NjI4NDE4LDIxLjM3MzU0ODIgWiI+JiN4YTsmI3hhOzwvcGF0aD4mI3hhOyAgICAgICAgICAgIDxwYXRoIGZpbGw9IiM2RkE1QUEiIGlkPSJTaGFwZSIgZD0iTTI0Ljg2Mjg0MTgsMjEuMzczNTQ4MiBMMTkuNjkzNzI2MiwyNi41NDMzNjY1IEwxOS42OTM3MjYyLDIyLjcyMDk4OTcgTDIyLjk1MjE4MDQsMTkuNDYyODg2OCBDMjMuNDc5OTEzNywxOC45MzQ4MDIyIDI0LjMzNTgxMTMsMTguOTM0ODAyMiAyNC44NjI4NDE4LDE5LjQ2Mjg4NjggQzI1LjM5MDU3NSwxOS45OTA2MjAxIDI1LjM5MDU3NSwyMC44NDY1MTc3IDI0Ljg2Mjg0MTgsMjEuMzczNTQ4MiBaIj4mI3hhOyYjeGE7PC9wYXRoPiYjeGE7ICAgICAgICA8L2c+JiN4YTsgICAgPC9nPiYjeGE7PC9zdmc+;" parent="1" vertex="1">
          <mxGeometry x="417.11" y="302" width="60" height="60" as="geometry" />
        </mxCell>
        <mxCell id="pqh-3Lmt7X_MS8Hs65BD-3" value="DNS server" style="shape=image;verticalLabelPosition=bottom;verticalAlign=top;imageAspect=0;aspect=fixed;image=data:image/svg+xml,PHN2ZyB4bWxuczp4bGluaz0iaHR0cDovL3d3dy53My5vcmcvMTk5OS94bGluayIgeG1sbnM9Imh0dHA6Ly93d3cudzMub3JnLzIwMDAvc3ZnIiB4bWw6c3BhY2U9InByZXNlcnZlIiB2aWV3Qm94PSIwIDAgMTg4OS40IDYyNyIgeT0iMHB4IiB4PSIwcHgiIGlkPSJMYXllcl8xIiB2ZXJzaW9uPSIxLjIiPiYjeGE7PHBhdGggZD0iTTE4NzMuNCw1MTBjLTguOSwwLTE2LTcuMS0xNi0xNmMwLTguNyw3LjEtMTYsMTYtMTZjOC43LDAsMTYsNy4xLDE2LDE2QzE4ODkuNCw1MDIuNywxODgyLjEsNTEwLDE4NzMuNCw1MTAmIzEwOyYjOTsgTTE4NzMuNCw0ODEuMWMtNy4xLDAtMTIuOSw1LjgtMTIuOSwxMi45czUuOCwxMi45LDEyLjksMTIuOXMxMi45LTUuOCwxMi45LTEyLjlTMTg4MC41LDQ4MS4xLDE4NzMuNCw0ODEuMSBNMTg4MS41LDUwMi40aC0zLjcmIzEwOyYjOTtsLTMuMi02aC00LjJ2NmgtMy40di0xNy42aDguNGMzLjcsMCw2LDIuNCw2LDUuOGMwLDIuNi0xLjYsNC41LTMuNyw1LjNMMTg4MS41LDUwMi40eiBNMTg3NS4yLDQ5My4yYzEuMywwLDIuNi0wLjgsMi42LTIuNiYjMTA7JiM5O2MwLTIuMS0xLjEtMi42LTIuNi0yLjZoLTUuM3Y1LjNIMTg3NS4yeiBNMjAyLjcsNDc2LjRoNDF2MTExLjdoNzEuMnYzNS44SDIwMi43TDIwMi43LDQ3Ni40eiBNMzU3LjMsNTUwLjVWNTUwJiMxMDsmIzk7YzAtNDIuMywzNC4yLTc2LjgsNzkuNy03Ni44czc5LjEsMzMuOSw3OS4xLDc2LjJ2MC41YzAsNDIuMy0zNC4yLDc2LjgtNzkuNyw3Ni44UzM1Ny4zLDU5Mi44LDM1Ny4zLDU1MC41IE00NzQuNSw1NTAuNVY1NTAmIzEwOyYjOTtjMC0yMS4zLTE1LjItMzkuNy0zNy45LTM5LjdjLTIyLjMsMC0zNy4zLDE4LjEtMzcuMywzOS40djAuNWMwLDIxLjMsMTUuMiwzOS43LDM3LjYsMzkuN0M0NTkuNSw1ODkuOSw0NzQuNSw1NzEuOCw0NzQuNSw1NTAuNSYjMTA7JiM5OyBNNTY2LjMsNTU5LjJ2LTgyLjhoNDEuNXY4MmMwLDIxLjMsMTAuOCwzMS4zLDI3LjEsMzEuM3MyNy4xLTkuNywyNy4xLTMwLjJ2LTgzLjFoNDEuNXY4MS44YzAsNDcuNi0yNy4xLDY4LjQtNjkuMSw2OC40JiMxMDsmIzk7QzU5Mi42LDYyNi41LDU2Ni4zLDYwNS40LDU2Ni4zLDU1OS4yIE03NjYuMSw0NzYuNGg1Ni44YzUyLjYsMCw4My4zLDMwLjIsODMuMyw3Mi44djAuNWMwLDQyLjYtMzEsNzQuMS04NC4xLDc0LjFoLTU2TDc2Ni4xLDQ3Ni40eiYjMTA7JiM5OyBNODIzLjYsNTg3LjZjMjQuNCwwLDQwLjctMTMuNCw0MC43LTM3LjN2LTAuNWMwLTIzLjctMTYuMy0zNy4zLTQwLjctMzcuM2gtMTYuNnY3NC45aDE2LjZWNTg3LjZ6IE05NjUuNiw0NzYuNGgxMTh2MzUuOGgtNzcuMyYjMTA7JiM5O3YyNS4yaDY5Ljl2MzMuOWgtNjkuOXY1Mi42aC00MC43VjQ3Ni40eiBNMTE0MC40LDQ3Ni40aDQwLjd2MTExLjdoNzEuNXYzNS44aC0xMTIuM1Y0NzYuNHogTTEzNTkuNCw0NzUuM2gzOS40bDYyLjgsMTQ4LjVoLTQzLjkmIzEwOyYjOTtsLTEwLjgtMjYuM2gtNTYuOGwtMTAuNSwyNi4zaC00Mi45TDEzNTkuNCw0NzUuM3ogTTEzOTUuNCw1NjUuN2wtMTYuMy00MS44bC0xNi42LDQxLjhIMTM5NS40eiBNMTUxNC4zLDQ3Ni40aDY5LjcmIzEwOyYjOTtjMjIuNiwwLDM4LjEsNS44LDQ4LjEsMTZjOC43LDguNCwxMy4xLDE5LjcsMTMuMSwzNC40djAuNWMwLDIyLjYtMTIuMSwzNy42LTMwLjIsNDUuMmwzNS4yLDUxLjVoLTQ3LjNsLTI5LjctNDQuN2gtMTcuOXY0NC43aC00MSYjMTA7JiM5O0wxNTE0LjMsNDc2LjR6IE0xNTgyLjEsNTQ3LjFjMTMuOSwwLDIxLjgtNi44LDIxLjgtMTcuNHYtMC41YzAtMTEuNi04LjQtMTcuNC0yMi4xLTE3LjRIMTU1NXYzNS4yTDE1ODIuMSw1NDcuMXogTTE3MDQuMSw0NzYuNCYjMTA7JiM5O2gxMTguNnYzNC43aC03OC4xdjIyLjNoNzAuN3YzMi4zaC03MC43djIzLjRoNzkuMXYzNC43aC0xMTkuNkwxNzA0LjEsNDc2LjR6IE0xMTMuMyw1NjcuOGMtNS44LDEyLjktMTcuOSwyMi4xLTMzLjcsMjIuMSYjMTA7JiM5O2MtMjIuMywwLTM3LjYtMTguNy0zNy42LTM5Ljd2LTAuNWMwLTIxLjMsMTUtMzkuNCwzNy4zLTM5LjRjMTYuOCwwLDI5LjcsMTAuMywzNSwyNC40aDQzLjFjLTYuOC0zNS4yLTM3LjktNjEuMy03Ny44LTYxLjMmIzEwOyYjOTtDMzQuMiw0NzMuNSwwLDUwNy45LDAsNTUwLjJ2MC41QzAsNTkzLjEsMzMuNyw2MjcsNzkuMSw2MjdjMzguOSwwLDY5LjQtMjUuMiw3Ny4zLTU4LjlMMTEzLjMsNTY3Ljh6IiBmaWxsPSIjNDA0MDQxIi8+JiN4YTs8cGF0aCBkPSJNMTc3NC4zLDI0MS4xbC0xMTIuOC02NC43TDE2NDIsMTY4bC00NjEuNCwzLjJ2MjM0LjJoNTkzLjZMMTc3NC4zLDI0MS4xeiIgZmlsbD0iI0ZGRkZGRiIvPiYjeGE7PHBhdGggZD0iTTE1NjguOSwzODMuOGM1LjUtMTguOSwzLjQtMzYuMy01LjgtNDkuMmMtOC40LTExLjgtMjIuNi0xOC43LTM5LjctMTkuNWwtMzIzLjYtNC4yYy0yLjEsMC0zLjktMS4xLTUtMi42JiMxMDsmIzk7Yy0xLjEtMS42LTEuMy0zLjctMC44LTUuOGMxLjEtMy4yLDQuMi01LjUsNy42LTUuOGwzMjYuNS00LjJjMzguNi0xLjgsODAuNy0zMy4xLDk1LjQtNzEuNWwxOC43LTQ4LjZjMC44LTIuMSwxLjEtNC4yLDAuNS02LjMmIzEwOyYjOTtDMTYyMS44LDcxLDE1MzYuOSwwLDE0MzUuNCwwYy05My42LDAtMTczLDYwLjUtMjAxLjQsMTQ0LjNjLTE4LjQtMTMuNy00MS44LTIxLTY3LTE4LjdjLTQ1LDQuNS04MSw0MC41LTg1LjQsODUuNCYjMTA7JiM5O2MtMS4xLDExLjYtMC4zLDIyLjksMi40LDMzLjRjLTczLjMsMi4xLTEzMiw2Mi0xMzIsMTM1LjljMCw2LjYsMC41LDEzLjEsMS4zLDE5LjdjMC41LDMuMiwzLjIsNS41LDYuMyw1LjVoNTk3LjMmIzEwOyYjOTtjMy40LDAsNi42LTIuNCw3LjYtNS44TDE1NjguOSwzODMuOHoiIGZpbGw9IiNGMzgwMjAiLz4mI3hhOzxwYXRoIGQ9Ik0xNjcyLDE3NS45Yy0yLjksMC02LDAtOC45LDAuM2MtMi4xLDAtMy45LDEuNi00LjcsMy43bC0xMi42LDQzLjljLTUuNSwxOC45LTMuNCwzNi4zLDUuOCw0OS4yJiMxMDsmIzk7YzguNCwxMS44LDIyLjYsMTguNywzOS43LDE5LjVsNjguOSw0LjJjMi4xLDAsMy45LDEuMSw1LDIuNmMxLjEsMS42LDEuMywzLjksMC44LDUuOGMtMS4xLDMuMi00LjIsNS41LTcuNiw1LjhsLTcxLjgsNC4yJiMxMDsmIzk7Yy0zOC45LDEuOC04MC43LDMzLjEtOTUuNCw3MS41bC01LjMsMTMuNGMtMS4xLDIuNiwwLjgsNS4zLDMuNyw1LjNIMTgzNmMyLjksMCw1LjUtMS44LDYuMy00LjdjNC4yLTE1LjIsNi42LTMxLjMsNi42LTQ3LjgmIzEwOyYjOTtDMTg0OC45LDI1NS4zLDE3NjkuNSwxNzUuOSwxNjcyLDE3NS45IiBmaWxsPSIjRkFBRTQwIi8+JiN4YTs8L3N2Zz4=;" parent="1" vertex="1">
          <mxGeometry x="140" y="430" width="130" height="43.11" as="geometry" />
        </mxCell>
        <mxCell id="pqh-3Lmt7X_MS8Hs65BD-5" value="" style="verticalLabelPosition=bottom;html=1;verticalAlign=top;align=center;strokeColor=none;fillColor=#00BEF2;shape=mxgraph.azure.computer;pointerEvents=1;" vertex="1" parent="1">
          <mxGeometry x="60" y="250" width="60" height="50" as="geometry" />
        </mxCell>
        <mxCell id="pqh-3Lmt7X_MS8Hs65BD-7" style="edgeStyle=orthogonalEdgeStyle;rounded=0;orthogonalLoop=1;jettySize=auto;html=1;entryX=0.017;entryY=0.614;entryDx=0;entryDy=0;entryPerimeter=0;fontColor=#009900;strokeColor=#009900;" edge="1" parent="1" source="pqh-3Lmt7X_MS8Hs65BD-5" target="6h8p0ZwOAbLh2k5HP3dE-1">
          <mxGeometry relative="1" as="geometry" />
        </mxCell>
        <mxCell id="pqh-3Lmt7X_MS8Hs65BD-9" value="&lt;font style=&quot;font-size: 13px;&quot; color=&quot;#cc6600&quot;&gt;DNS request&lt;/font&gt;" style="text;html=1;align=center;verticalAlign=middle;resizable=0;points=[];autosize=1;strokeColor=none;fillColor=none;rotation=45;strokeWidth=1;" vertex="1" parent="1">
          <mxGeometry x="125" y="343.11" width="100" height="30" as="geometry" />
        </mxCell>
        <mxCell id="pqh-3Lmt7X_MS8Hs65BD-12" value="" style="endArrow=classic;startArrow=classic;html=1;rounded=0;entryX=0.517;entryY=1.14;entryDx=0;entryDy=0;entryPerimeter=0;exitX=0.5;exitY=0;exitDx=0;exitDy=0;strokeColor=#994C00;" edge="1" parent="1" source="pqh-3Lmt7X_MS8Hs65BD-3" target="pqh-3Lmt7X_MS8Hs65BD-5">
          <mxGeometry width="50" height="50" relative="1" as="geometry">
            <mxPoint x="390" y="480" as="sourcePoint" />
            <mxPoint x="440" y="430" as="targetPoint" />
            <Array as="points" />
          </mxGeometry>
        </mxCell>
        <mxCell id="pqh-3Lmt7X_MS8Hs65BD-13" value="&lt;font color=&quot;#cc6600&quot;&gt;DNS response&lt;/font&gt;" style="text;html=1;align=center;verticalAlign=middle;resizable=0;points=[];autosize=1;strokeColor=none;fillColor=none;rotation=47;" vertex="1" parent="1">
          <mxGeometry x="80" y="373.11" width="100" height="30" as="geometry" />
        </mxCell>
        <mxCell id="pqh-3Lmt7X_MS8Hs65BD-15" value="" style="endArrow=classic;html=1;rounded=0;exitX=0.747;exitY=1.176;exitDx=0;exitDy=0;exitPerimeter=0;entryX=0.209;entryY=1.145;entryDx=0;entryDy=0;entryPerimeter=0;dashed=1;dashPattern=8 8;fillColor=#008a00;strokeColor=#005700;" edge="1" parent="1" source="pqh-3Lmt7X_MS8Hs65BD-13" target="pqh-3Lmt7X_MS8Hs65BD-13">
          <mxGeometry width="50" height="50" relative="1" as="geometry">
            <mxPoint x="119" y="419" as="sourcePoint" />
            <mxPoint x="90" y="380" as="targetPoint" />
          </mxGeometry>
        </mxCell>
        <mxCell id="pqh-3Lmt7X_MS8Hs65BD-17" value="" style="endArrow=classic;html=1;rounded=0;dashed=1;dashPattern=8 8;fillColor=#008a00;strokeColor=#005700;entryX=0.761;entryY=-0.186;entryDx=0;entryDy=0;entryPerimeter=0;exitX=0.223;exitY=-0.186;exitDx=0;exitDy=0;exitPerimeter=0;" edge="1" parent="1" source="pqh-3Lmt7X_MS8Hs65BD-9" target="pqh-3Lmt7X_MS8Hs65BD-9">
          <mxGeometry width="50" height="50" relative="1" as="geometry">
            <mxPoint x="180" y="330" as="sourcePoint" />
            <mxPoint x="220" y="370" as="targetPoint" />
          </mxGeometry>
        </mxCell>
        <mxCell id="pqh-3Lmt7X_MS8Hs65BD-18" value="HTTP&lt;font color=&quot;#00cc00&quot;&gt;S&lt;/font&gt;&amp;nbsp; request" style="text;html=1;align=center;verticalAlign=middle;resizable=0;points=[];autosize=1;fontFamily=Verdana;fontSize=18;fontColor=#FFCCE6;" vertex="1" parent="1">
          <mxGeometry x="250" y="220" width="140" height="40" as="geometry" />
        </mxCell>
        <mxCell id="pqh-3Lmt7X_MS8Hs65BD-19" value="jenkins.d3vops.me" style="text;html=1;align=center;verticalAlign=middle;resizable=0;points=[];autosize=1;fontSize=18;fontColor=#00CC00;" vertex="1" parent="1">
          <mxGeometry x="225" y="283" width="170" height="40" as="geometry" />
        </mxCell>
        <mxCell id="pqh-3Lmt7X_MS8Hs65BD-24" style="edgeStyle=orthogonalEdgeStyle;rounded=0;orthogonalLoop=1;jettySize=auto;html=1;shape=link;align=center;strokeColor=#CC6600;" edge="1" parent="1" source="pqh-3Lmt7X_MS8Hs65BD-20" target="pqh-3Lmt7X_MS8Hs65BD-1">
          <mxGeometry relative="1" as="geometry" />
        </mxCell>
        <mxCell id="pqh-3Lmt7X_MS8Hs65BD-25" value="&lt;font color=&quot;#cc6600&quot;&gt;DNS challenge&lt;/font&gt;" style="edgeLabel;html=1;align=center;verticalAlign=top;resizable=0;points=[];horizontal=1;fontSize=13;" connectable="0" vertex="1" parent="pqh-3Lmt7X_MS8Hs65BD-24">
          <mxGeometry x="0.2601" y="1" relative="1" as="geometry">
            <mxPoint x="9" y="-1" as="offset" />
          </mxGeometry>
        </mxCell>
        <mxCell id="pqh-3Lmt7X_MS8Hs65BD-20" value="" style="shape=image;verticalLabelPosition=bottom;verticalAlign=top;imageAspect=0;aspect=fixed;image=data:image/svg+xml,PHN2ZyB4bWxuczp4bGluaz0iaHR0cDovL3d3dy53My5vcmcvMTk5OS94bGluayIgeG1sbnM9Imh0dHA6Ly93d3cudzMub3JnLzIwMDAvc3ZnIiB4bWw6c3BhY2U9InByZXNlcnZlIiB2aWV3Qm94PSIwIDAgMTg4OS40IDYyNyIgeT0iMHB4IiB4PSIwcHgiIGlkPSJMYXllcl8xIiB2ZXJzaW9uPSIxLjIiPiYjeGE7PHBhdGggZD0iTTE4NzMuNCw1MTBjLTguOSwwLTE2LTcuMS0xNi0xNmMwLTguNyw3LjEtMTYsMTYtMTZjOC43LDAsMTYsNy4xLDE2LDE2QzE4ODkuNCw1MDIuNywxODgyLjEsNTEwLDE4NzMuNCw1MTAmIzEwOyYjOTsgTTE4NzMuNCw0ODEuMWMtNy4xLDAtMTIuOSw1LjgtMTIuOSwxMi45czUuOCwxMi45LDEyLjksMTIuOXMxMi45LTUuOCwxMi45LTEyLjlTMTg4MC41LDQ4MS4xLDE4NzMuNCw0ODEuMSBNMTg4MS41LDUwMi40aC0zLjcmIzEwOyYjOTtsLTMuMi02aC00LjJ2NmgtMy40di0xNy42aDguNGMzLjcsMCw2LDIuNCw2LDUuOGMwLDIuNi0xLjYsNC41LTMuNyw1LjNMMTg4MS41LDUwMi40eiBNMTg3NS4yLDQ5My4yYzEuMywwLDIuNi0wLjgsMi42LTIuNiYjMTA7JiM5O2MwLTIuMS0xLjEtMi42LTIuNi0yLjZoLTUuM3Y1LjNIMTg3NS4yeiBNMjAyLjcsNDc2LjRoNDF2MTExLjdoNzEuMnYzNS44SDIwMi43TDIwMi43LDQ3Ni40eiBNMzU3LjMsNTUwLjVWNTUwJiMxMDsmIzk7YzAtNDIuMywzNC4yLTc2LjgsNzkuNy03Ni44czc5LjEsMzMuOSw3OS4xLDc2LjJ2MC41YzAsNDIuMy0zNC4yLDc2LjgtNzkuNyw3Ni44UzM1Ny4zLDU5Mi44LDM1Ny4zLDU1MC41IE00NzQuNSw1NTAuNVY1NTAmIzEwOyYjOTtjMC0yMS4zLTE1LjItMzkuNy0zNy45LTM5LjdjLTIyLjMsMC0zNy4zLDE4LjEtMzcuMywzOS40djAuNWMwLDIxLjMsMTUuMiwzOS43LDM3LjYsMzkuN0M0NTkuNSw1ODkuOSw0NzQuNSw1NzEuOCw0NzQuNSw1NTAuNSYjMTA7JiM5OyBNNTY2LjMsNTU5LjJ2LTgyLjhoNDEuNXY4MmMwLDIxLjMsMTAuOCwzMS4zLDI3LjEsMzEuM3MyNy4xLTkuNywyNy4xLTMwLjJ2LTgzLjFoNDEuNXY4MS44YzAsNDcuNi0yNy4xLDY4LjQtNjkuMSw2OC40JiMxMDsmIzk7QzU5Mi42LDYyNi41LDU2Ni4zLDYwNS40LDU2Ni4zLDU1OS4yIE03NjYuMSw0NzYuNGg1Ni44YzUyLjYsMCw4My4zLDMwLjIsODMuMyw3Mi44djAuNWMwLDQyLjYtMzEsNzQuMS04NC4xLDc0LjFoLTU2TDc2Ni4xLDQ3Ni40eiYjMTA7JiM5OyBNODIzLjYsNTg3LjZjMjQuNCwwLDQwLjctMTMuNCw0MC43LTM3LjN2LTAuNWMwLTIzLjctMTYuMy0zNy4zLTQwLjctMzcuM2gtMTYuNnY3NC45aDE2LjZWNTg3LjZ6IE05NjUuNiw0NzYuNGgxMTh2MzUuOGgtNzcuMyYjMTA7JiM5O3YyNS4yaDY5Ljl2MzMuOWgtNjkuOXY1Mi42aC00MC43VjQ3Ni40eiBNMTE0MC40LDQ3Ni40aDQwLjd2MTExLjdoNzEuNXYzNS44aC0xMTIuM1Y0NzYuNHogTTEzNTkuNCw0NzUuM2gzOS40bDYyLjgsMTQ4LjVoLTQzLjkmIzEwOyYjOTtsLTEwLjgtMjYuM2gtNTYuOGwtMTAuNSwyNi4zaC00Mi45TDEzNTkuNCw0NzUuM3ogTTEzOTUuNCw1NjUuN2wtMTYuMy00MS44bC0xNi42LDQxLjhIMTM5NS40eiBNMTUxNC4zLDQ3Ni40aDY5LjcmIzEwOyYjOTtjMjIuNiwwLDM4LjEsNS44LDQ4LjEsMTZjOC43LDguNCwxMy4xLDE5LjcsMTMuMSwzNC40djAuNWMwLDIyLjYtMTIuMSwzNy42LTMwLjIsNDUuMmwzNS4yLDUxLjVoLTQ3LjNsLTI5LjctNDQuN2gtMTcuOXY0NC43aC00MSYjMTA7JiM5O0wxNTE0LjMsNDc2LjR6IE0xNTgyLjEsNTQ3LjFjMTMuOSwwLDIxLjgtNi44LDIxLjgtMTcuNHYtMC41YzAtMTEuNi04LjQtMTcuNC0yMi4xLTE3LjRIMTU1NXYzNS4yTDE1ODIuMSw1NDcuMXogTTE3MDQuMSw0NzYuNCYjMTA7JiM5O2gxMTguNnYzNC43aC03OC4xdjIyLjNoNzAuN3YzMi4zaC03MC43djIzLjRoNzkuMXYzNC43aC0xMTkuNkwxNzA0LjEsNDc2LjR6IE0xMTMuMyw1NjcuOGMtNS44LDEyLjktMTcuOSwyMi4xLTMzLjcsMjIuMSYjMTA7JiM5O2MtMjIuMywwLTM3LjYtMTguNy0zNy42LTM5Ljd2LTAuNWMwLTIxLjMsMTUtMzkuNCwzNy4zLTM5LjRjMTYuOCwwLDI5LjcsMTAuMywzNSwyNC40aDQzLjFjLTYuOC0zNS4yLTM3LjktNjEuMy03Ny44LTYxLjMmIzEwOyYjOTtDMzQuMiw0NzMuNSwwLDUwNy45LDAsNTUwLjJ2MC41QzAsNTkzLjEsMzMuNyw2MjcsNzkuMSw2MjdjMzguOSwwLDY5LjQtMjUuMiw3Ny4zLTU4LjlMMTEzLjMsNTY3Ljh6IiBmaWxsPSIjNDA0MDQxIi8+JiN4YTs8cGF0aCBkPSJNMTc3NC4zLDI0MS4xbC0xMTIuOC02NC43TDE2NDIsMTY4bC00NjEuNCwzLjJ2MjM0LjJoNTkzLjZMMTc3NC4zLDI0MS4xeiIgZmlsbD0iI0ZGRkZGRiIvPiYjeGE7PHBhdGggZD0iTTE1NjguOSwzODMuOGM1LjUtMTguOSwzLjQtMzYuMy01LjgtNDkuMmMtOC40LTExLjgtMjIuNi0xOC43LTM5LjctMTkuNWwtMzIzLjYtNC4yYy0yLjEsMC0zLjktMS4xLTUtMi42JiMxMDsmIzk7Yy0xLjEtMS42LTEuMy0zLjctMC44LTUuOGMxLjEtMy4yLDQuMi01LjUsNy42LTUuOGwzMjYuNS00LjJjMzguNi0xLjgsODAuNy0zMy4xLDk1LjQtNzEuNWwxOC43LTQ4LjZjMC44LTIuMSwxLjEtNC4yLDAuNS02LjMmIzEwOyYjOTtDMTYyMS44LDcxLDE1MzYuOSwwLDE0MzUuNCwwYy05My42LDAtMTczLDYwLjUtMjAxLjQsMTQ0LjNjLTE4LjQtMTMuNy00MS44LTIxLTY3LTE4LjdjLTQ1LDQuNS04MSw0MC41LTg1LjQsODUuNCYjMTA7JiM5O2MtMS4xLDExLjYtMC4zLDIyLjksMi40LDMzLjRjLTczLjMsMi4xLTEzMiw2Mi0xMzIsMTM1LjljMCw2LjYsMC41LDEzLjEsMS4zLDE5LjdjMC41LDMuMiwzLjIsNS41LDYuMyw1LjVoNTk3LjMmIzEwOyYjOTtjMy40LDAsNi42LTIuNCw3LjYtNS44TDE1NjguOSwzODMuOHoiIGZpbGw9IiNGMzgwMjAiLz4mI3hhOzxwYXRoIGQ9Ik0xNjcyLDE3NS45Yy0yLjksMC02LDAtOC45LDAuM2MtMi4xLDAtMy45LDEuNi00LjcsMy43bC0xMi42LDQzLjljLTUuNSwxOC45LTMuNCwzNi4zLDUuOCw0OS4yJiMxMDsmIzk7YzguNCwxMS44LDIyLjYsMTguNywzOS43LDE5LjVsNjguOSw0LjJjMi4xLDAsMy45LDEuMSw1LDIuNmMxLjEsMS42LDEuMywzLjksMC44LDUuOGMtMS4xLDMuMi00LjIsNS41LTcuNiw1LjhsLTcxLjgsNC4yJiMxMDsmIzk7Yy0zOC45LDEuOC04MC43LDMzLjEtOTUuNCw3MS41bC01LjMsMTMuNGMtMS4xLDIuNiwwLjgsNS4zLDMuNyw1LjNIMTgzNmMyLjksMCw1LjUtMS44LDYuMy00LjdjNC4yLTE1LjIsNi42LTMxLjMsNi42LTQ3LjgmIzEwOyYjOTtDMTg0OC45LDI1NS4zLDE3NjkuNSwxNzUuOSwxNjcyLDE3NS45IiBmaWxsPSIjRkFBRTQwIi8+JiN4YTs8L3N2Zz4=;" vertex="1" parent="1">
          <mxGeometry x="650" y="505.15000000000003" width="139.92" height="46.4" as="geometry" />
        </mxCell>
        <mxCell id="pqh-3Lmt7X_MS8Hs65BD-28" value="&lt;font color=&quot;#cc6600&quot; style=&quot;font-size: 17px;&quot;&gt;ACME&lt;/font&gt;" style="text;html=1;align=center;verticalAlign=middle;resizable=0;points=[];autosize=1;strokeColor=none;fillColor=none;rotation=55;strokeWidth=1;fontSize=17;" vertex="1" parent="1">
          <mxGeometry x="625" y="370" width="70" height="30" as="geometry" />
        </mxCell>
        <mxCell id="pqh-3Lmt7X_MS8Hs65BD-33" value="JENKINS&#xa;" style="shape=image;verticalLabelPosition=bottom;verticalAlign=top;imageAspect=0;aspect=fixed;image=data:image/svg+xml,PHN2ZyB4bWxucz0iaHR0cDovL3d3dy53My5vcmcvMjAwMC9zdmciIHZpZXdCb3g9IjAgMCAzMiAzMiIgaGVpZ2h0PSI4MDBweCIgd2lkdGg9IjgwMHB4Ij48dGl0bGU+ZmlsZV90eXBlX2plbmtpbnM8L3RpdGxlPjxwYXRoIHN0eWxlPSJmaWxsOm5vbmUiIGQ9Ik0xOS41MTMsMjUuMTczYy0uMDY4LDAtLjEzNiwwLS4yLS4wMUMxOS4zNzgsMjUuMTY5LDE5LjQ0NSwyNS4xNzMsMTkuNTEzLDI1LjE3M1oiLz48cGF0aCBzdHlsZT0iZmlsbDpub25lIiBkPSJNMTguOTE5LDI1LjA4N2ExLjkzLDEuOTMsMCwwLDAsLjM5Mi4wNzZBMS45MywxLjkzLDAsMCwxLDE4LjkxOSwyNS4wODdaIi8+PHBhdGggc3R5bGU9ImZpbGw6bm9uZSIgZD0iTTIwLjA5MSwyNy41MTFjLS4wMjEtLjEyMS0uMDQzLS4yMjEtLjA2NC0uMzFoMGMuMDIxLjA4OS4wNDMuMTg5LjA2NC4zMVoiLz48cGF0aCBzdHlsZT0iZmlsbDojZjBkNmI3IiBkPSJNNy40MzYsMTQuMjE0QS44MzIuODMyLDAsMCwxLDcuNiwxNC4xLjU4MS41ODEsMCwwLDAsNy40MzYsMTQuMjE0WiIvPjxwYXRoIHN0eWxlPSJmaWxsOiNmMGQ2YjciIGQ9Ik0xMC40MTIsMTguMjUzYy4wNi40MjEuMjQsNC4xNjQsMi43NjYsNi4yNWExNS40NjUsMTUuNDY1LDAsMCwwLDEuNTQ5LjE2MmMuMjgtLjYsMS4zMTItLjU1NCwxLjk4NS0uNGE2LjY0OCw2LjY0OCwwLDAsMS0yLjE3Ni0xLjc3OCw0LjQ2Niw0LjQ2NiwwLDAsMS0xLjQ3Mi0yLjY1NmMxLjM0OCwxLjg3LDIuNDYyLDMuNSw0LjkxMyw0LjMyNiwxLjg1NS42MjIsNC4wMjEtLjI4NSw1LjQ0Ni0xLjI4NmE2LjI1OCw2LjI1OCwwLDAsMCwxLjM2NS0xLjY4LDE0LjI0MiwxNC4yNDIsMCwwLDAsMi4xNDUtOC42MjEsOS41NjcsOS41NjcsMCwwLDAtLjUtMy40NDZjLS40NTMtLjkwOC0xLjk4NC0xLjcyLTIuODgtLjlhMS4wNywxLjA3LDAsMCwxLS4wMTYtLjI0NmMtLjE0My4xMzQtLjIzLjIzMi0uMjMuMjMyYTEuMjA5LDEuMjA5LDAsMCwxLS4xMjItLjQ4NywxLjU1MSwxLjU1MSwwLDAsMSwxLjUtMS41LDguNjc0LDguNjc0LDAsMCwwLTEuNDc5LTEuNTYzLDEwLjQ5LDEwLjQ5LDAsMCwwLTYuMDQ3LS4yMjIsOC4wNiw4LjA2LDAsMCwwLTUuOTc1LDUuNCwxNC4wODUsMTQuMDg1LDAsMCwwLS4zODgsMi4yNjNjLS4wMzEuODg0LjQxNiwxLjY1NS40NSwyLjYxNy0uMjM5LjM5NC0uOTY5LjQ0My0xLjQ3NC40MTYtLjAzNy0uMTg3LS4wODItLjM3OS0uMTM2LS41NjZhNS4xNTgsNS4xNTgsMCwwLDAtMS4yNjUtLjUsMS43MTksMS43MTksMCwwLDEsMS4wMDksMi4wMzhjLS4zNzMtLjIxMy0uNDYyLTEuMTUtLjktMS4xNzctLjYyNi0uMDM4LS41MTIsMS4yMTYtLjUwOSwxLjk1YTIuMjkxLDIuMjkxLDAsMCwxLS4xOS0yLjIxM2MtLjI4NC0uMTM5LS40NDQuMDYxLS42LjIxNy0uMjIyLDEuMDM2LS41NDcsMS44NzMuMDYyLDIuOTJhMS43MzQsMS43MzQsMCwwLDAsMS40MTQuNmMuNTY3LS4wNTYuNzA2LS42MjQsMS4zMjQtLjYxOEEuNTEzLjUxMywwLDAsMSwxMC40MTIsMTguMjUzWk0xNi44NjEsMjAuMmwtLjMtLjA2MXMtLjMxNC0xLjEtLjE2My0xLjMwNmMuMDgtLjEwNy41Mi0uMjY4LDEuMTM2LjAyOEMxNy41MywxOC44NjIsMTYuOCwxOC45ODQsMTYuODYxLDIwLjJabTUuNzA2LDEuMzQxYTUuMjcsNS4yNywwLDAsMS0zLjQyNi0uMDE0QTQuNjg3LDQuNjg3LDAsMCwxLDE3Ljg1OCwyMC4xYy0uMTU1LS4yLS45MjctLjcwOC0uMDEyLS43MDloMGMuNzE3LDEuOCwzLjE4LDEuNTkyLDUuMjU3LDEuNTQzQTEuMTExLDEuMTExLDAsMCwxLDIyLjU2NywyMS41NDJabS4zLTEuNmE0LjAxNiw0LjAxNiwwLDAsMSwwLTEuMDYzLDguNTM4LDguNTM4LDAsMCwwLDIuOTYtMS4xODVoMEEzLjQyNSwzLjQyNSwwLDAsMSwyMi44NjYsMTkuOTM5Wm0yLjc1Ni04LjA3M2MtLjE4My4wNjEtMS4zNy43NjItMS4yNzgtLjEyMmExLjM0OCwxLjM0OCwwLDAsMSwxLjAyNi0xLjA3NywzLjAzNywzLjAzNywwLDAsMSwwLS40aDBsLjA3OSwwYTE3LjE0NiwxNy4xNDYsMCwwLDAsMS4xNzIsMi4yOWMtLjMxNy43MzgtMi40LDEuMzktMi4zNjYuMDY2LjQ1LS4yLDEuMjI3LS4wNCwxLjYyNi0uMjkxLS4wOTQtLjI1Ny0uMi0uNS0uMy0uNzU2Wm0tNS4xODcsNC43NWEuNzE5LjcxOSwwLDAsMSwuMDQ2LjFjLjA5MS0uNTA3LjI1OS0xLjEuNTQ4LTEuMDEzYS42ODQuNjg0LDAsMCwxLC41LjYzOCw2LjkwOCw2LjkwOCwwLDAsMC0uOTQ4LjczOGMuMDY1LjMuMTQ0LjYuNTIzLjY2OCwxLjEwNi4xODksMi4zOTMtLjY3NywzLjE4OS0uOTc5LjQ5My0uODMyLS4wNDMtMS4xMzgtLjQ4Ny0xLjY3My0uOTEtMS4xLTIuMTMtMi40NTYtMi4wODYtNC4xLjM2OC0uMjY3LjQuNDA3LjQ1Mi41M2ExNS4wMDYsMTUuMDA2LDAsMCwwLDIuNTQzLDMuNDg2Yy4yMTQuMjM0LjU2Ny40NTkuNjA2LjYxNC4xMTMuNDUxLS4yOTQuOTkxLS4yNDcsMS4yOWgwYTYuNTg3LDYuNTg3LDAsMCwxLTQuNDY2LDEuNEExLjMyMiwxLjMyMiwwLDAsMSwyMC40MzQsMTYuNjE1Wm0xLjk1OCwyLjMyMUE0LjkzMyw0LjkzMywwLDAsMSwyMi40NywyMGMtMS44MTEuMDktMy45NTItLjM1OC00LjQyNy0xLjYyOUExMC4yODUsMTAuMjg1LDAsMCwwLDIyLjM5MywxOC45MzZabS00LjI1Ni04LjY0OGE2Ljk1NCw2Ljk1NCwwLDAsMCwuOTc3LDEuODI5Yy4yMjguMjIyLjY3LjQ5Mi40NTEsMS4xMDlhMS40MDYsMS40MDYsMCwwLDEtLjY0Mi41MzRjLS43OS4yMzMtMi42MzEuMDQ4LTIuMDA4LS45MzcuNjUzLjAzLDEuNTMyLjQyNCwyLjAyLS4wNS0uMDk1LS4xNTItLjIwOS0uMzQxLS4zMjItLjU1MS0uNS4zMTYtMS44NzQuMzMtMS44NzQtLjQ3OSwwLS44NTIsMS4zMzktMS4wMzQsMS4zMzktMS4wMzRsLjAxLjAyNEExLjExLDEuMTEsMCwwLDEsMTguMTM3LDEwLjI4OFpNMTQuOTE0LDcuMzYzYzEuMTk1LS44MTUsMS44LS4zNSwyLjEuMTg4YS41NjguNTY4LDAsMCwxLC4yNzQuODI4Yy0xLjY1OC0uMzg2LTIuNDgyLjY5NC0yLjk4NSwxLjgxNC0uMTI5LjIzNC0uMTM2LjA2OC0uMjEtLjEzNmEuMzkyLjM5MiwwLDAsMS0uMDYxLS4xMzZBLjU1MS41NTEsMCwwLDAsMTMuOTQsOS44QzEzLjcsOS41NTMsMTMuNTc1LDguMjc2LDE0LjkxNCw3LjM2M1oiLz48cGF0aCBzdHlsZT0iZmlsbDojMzM1MDYxIiBkPSJNNi4yODMsMjkuMjhoOC43NTNjLS4wNC0uMTM1LS4wNzktLjI2OC0uMTE4LS4zOTRhMTIuMTY0LDEyLjE2NCwwLDAsMS0uNDc2LTEuOTQ4LDIxLjA3OSwyMS4wNzksMCwwLDEtMy4wODctMS42NTUsMi4zNTMsMi4zNTMsMCwwLDEtLjI0LS4yNTdMNS44NDksMjcuMzc5UzYuMDM4LDI4LjEzMyw2LjI4MywyOS4yOFoiLz48cGF0aCBzdHlsZT0iZmlsbDojNmQ2YjZkIiBkPSJNOS40MzMsN0EyLjEyNSwyLjEyNSwwLDAsMSw5LjksNi45MTJhMy44MTcsMy44MTcsMCwwLDAsLjc0Ny4wMjljLjQ5NC0uMTIzLjkxMi0xLjIzMSwxLjI4NS0xLjY0NGExMS4zMzMsMTEuMzMzLDAsMCwxLC45NDEtLjc3NkE3LjM0Niw3LjM0NiwwLDAsMCw5LjQzMyw3WiIvPjxwYXRoIHN0eWxlPSJmaWxsOiM2ZDZiNmQiIGQ9Ik03LjE3NywxMi41ODZhMi4xNDcsMi4xNDcsMCwwLDEsMy4xNDUsMS43NDdjLjY5NC0uMDE4LjI1OS0uODY2LjEzNC0xLjQxMy0uMzY5LTEuNjA4LjQ4Ny0zLjM0LjE5Mi00Ljg2MUM2Ljc4Miw4LjYzNyw3LDExLjYwNiw3LjE3NywxMi41ODZaIi8+PHBhdGggc3R5bGU9ImZpbGw6I2RjZDlkOCIgZD0iTTEzLjI0OSwzLjg1MWMtMS44Mi41MTYtNC4xNTIsMS44MzgtNC45LDMuNDczQTcuMzg5LDcuMzg5LDAsMCwwLDkuNDMzLDdhNy4zNDYsNy4zNDYsMCwwLDEsMy40NC0yLjQ3OSwxLjY0NywxLjY0NywwLDAsMCwuMTU5LS4xNjZjLjE5Mi0uMDkzLjQ3Ni0uMDg2LjQ4Ny0uMzc1QzEzLjQzNiwzLjg5MSwxMy4zNDgsMy44MjMsMTMuMjQ5LDMuODUxWiIvPjxwYXRoIHN0eWxlPSJmaWxsOiNkY2Q5ZDgiIGQ9Ik03LjUsOC45ODVjLS44Ljg4NS0uNjM2LDIuNTQyLS41MzgsMy43MjFhMi4zMjEsMi4zMjEsMCwwLDEsLjIxOC0uMTJjLS4xOC0uOTc5LS4zOTQtMy45NDksMy40NzEtNC41MjdhMi44MSwyLjgxLDAsMCwwLS4xNDItLjQ5M0E0LjQwOSw0LjQwOSwwLDAsMCw3LjUsOC45ODVaIi8+PHBhdGggc3R5bGU9ImZpbGw6I2Y3ZTRjZCIgZD0iTTEwLjQxMiwxOC4yNTNhLjUxMy41MTMsMCwwLDAtLjQyLS40NjhjLjMzNS42NjgtLjUxNi44NzgtLjYsMS4zNTVhMy44MzcsMy44MzcsMCwwLDAsLjEyNS44MzIsMTEuMzUxLDExLjM1MSwwLDAsMCwxLjQ0NSwzLjM2NSwzLjE4MSwzLjE4MSwwLDAsMCwyLjIyLDEuMTY2QzEwLjY1MiwyMi40MTgsMTAuNDcyLDE4LjY3NCwxMC40MTIsMTguMjUzWiIvPjxwYXRoIHN0eWxlPSJmaWxsOiNmN2U0Y2QiIGQ9Ik0yMS41MjUsMTYuMzM4YS42ODQuNjg0LDAsMCwwLS41LS42MzhjLS4yODktLjA4Mi0uNDU3LjUwNi0uNTQ4LDEuMDEzYTIuMzc2LDIuMzc2LDAsMCwxLC4xLjM2M0E2LjkwOCw2LjkwOCwwLDAsMSwyMS41MjUsMTYuMzM4WiIvPjxwYXRoIHN0eWxlPSJmaWxsOiNmN2U0Y2QiIGQ9Ik0yNC4zNDQsMTEuNzQ0Yy0uMDkyLjg4NCwxLjEuMTgzLDEuMjc4LjEyMmwtLjA0My0uMjg2YTMuMjM1LDMuMjM1LDAsMCwxLS4yMDktLjkxM0ExLjM0OCwxLjM0OCwwLDAsMCwyNC4zNDQsMTEuNzQ0WiIvPjxwYXRoIHN0eWxlPSJmaWxsOiNmN2U0Y2QiIGQ9Ik0xNi43MzksMTEuNzQ0YzAsLjgwOSwxLjM3MS43OTUsMS44NzQuNDc5YTQuMDUzLDQuMDUzLDAsMCwxLS41MjUtMS40ODlsLS4wMS0uMDI0UzE2LjczOSwxMC44OTIsMTYuNzM5LDExLjc0NFoiLz48cGF0aCBzdHlsZT0iZmlsbDojZjdlNGNkIiBkPSJNNy4xOTIsMTQuODg1YS44LjgsMCwwLDEtLjEyNS4xMDksMS4yMjEsMS4yMjEsMCwwLDEsLjM3LS43ODFBLjU4MS41ODEsMCwwLDEsNy42LDE0LjFhLjk3OS45NzksMCwwLDEsLjc4Mi0uMDMyLDUuMTU4LDUuMTU4LDAsMCwxLDEuMjY1LjVjLS4xOTMtLjY2NC0uNTI0LTEuMjYzLTEuMjA4LTEuMzM4YTIuMDM0LDIuMDM0LDAsMCwwLTIuMiwxLjk2M0EzLjg1OCwzLjg1OCwwLDAsMCw3LjI1NCwxNy44QzYuNjQ0LDE2Ljc1OCw2Ljk3LDE1LjkyMSw3LjE5MiwxNC44ODVaIi8+PHBhdGggc3R5bGU9ImZpbGw6I2Y3ZTRjZCIgZD0iTTE3LjE2NSw0LjQ0M2ExMC40OSwxMC40OSwwLDAsMSw2LjA0Ny4yMjIsNC4xMjcsNC4xMjcsMCwwLDAtLjQ5LS4zMjljLTEuODg5LTEuMDY2LTUuMDg2LTEuODY3LTcuMS0uODY2LTEuNjIxLjgwOC0zLjgxMywyLjE0Ni00LjU2LDMuODQxYTQuMTA5LDQuMTA5LDAsMCwxLC4xMjMsMi41MzJBOC4wNiw4LjA2LDAsMCwxLDE3LjE2NSw0LjQ0M1oiLz48cGF0aCBzdHlsZT0iZmlsbDojZjdlNGNkIiBkPSJNMjMuMTg4LDcuNzI4YTEuMjA5LDEuMjA5LDAsMCwwLC4xMjIuNDg3cy4wODctLjEuMjMtLjIzMmMuMDMxLS43MzQuODY1LTEuMTUyLDEuODMyLS44NjYtLjIyMi0uMjg2LS40NDctLjU4OS0uNjgxLS44ODlBMS41NTEsMS41NTEsMCwwLDAsMjMuMTg4LDcuNzI4WiIvPjxwYXRoIHN0eWxlPSJmaWxsOiNmN2U0Y2QiIGQ9Ik0xNC4wOTIsMTAuMDU4Yy4wNzQuMi4wODIuMzcuMjEuMTM2QS4zNDguMzQ4LDAsMCwxLDE0LjA5MiwxMC4wNThaIi8+PHBhdGggc3R5bGU9ImZpbGw6I2Y3ZTRjZCIgZD0iTTE0LjAzMiw5LjkyMmExLjQ4NiwxLjQ4NiwwLDAsMSwuMTE0LS43NTgsMi44MTYsMi44MTYsMCwwLDEsMi40Ny0xLjc1NSwxLjE0OSwxLjE0OSwwLDAsMSwuNC4xNDNjLS4zLS41MzgtLjktMS0yLjEtLjE4OC0xLjMzOC45MTMtMS4yMTcsMi4xOS0uOTczLDIuNDM0QS41NTEuNTUxLDAsMCwxLDE0LjAzMiw5LjkyMloiLz48cGF0aCBzdHlsZT0iZmlsbDojNDk3MjhiIiBkPSJNNS44NDksMjcuMzc5bDUuMjY2LTIuMzUzYy0uMzg2LS40NDgtMS4wNzktMS4zLTEuMi0xLjI1N2EyNC4wNzksMjQuMDc5LDAsMCwwLTUuNjEsMy40ODUsMjAuMjM2LDIwLjIzNiwwLDAsMSwuODEsMi4wMjZINi4yODNDNi4wMzgsMjguMTMzLDUuODQ5LDI3LjM3OSw1Ljg0OSwyNy4zNzlaIi8+PHBhdGggc3R5bGU9ImZpbGw6IzMzNTA2MSIgZD0iTTI3LDI5LjMwN2EyMC44MzYsMjAuODM2LDAsMCwwLC41NDgtMi4wNThjLjAzNi0uMTgxLjEwNi0uNDc1LjE1Ni0uNzU2bC0yLjg4Ni0yLjE0NGE1LjEyMyw1LjEyMywwLDAsMSwuMTMsMy45Yy4xLjM3Mi40NTQuNTE1LjYuODUtLjAzNC4wNi0uMDY4LjExOS0uMS4xNzloMS40NzZBLjE0OS4xNDksMCwwLDEsMjcsMjkuMzA3WiIvPjxwYXRoIHN0eWxlPSJmaWxsOiMzMzUwNjEiIGQ9Ik0yNC40NDEsMjguMDc0YTEuMDgxLDEuMDgxLDAsMCwwLC4xNzItLjM4MSwxLjA4MSwxLjA4MSwwLDAsMS0uMTcyLjM4MVoiLz48cGF0aCBzdHlsZT0iZmlsbDojMzM1MDYxIiBkPSJNMjMuNjE3LDIzLjk0NmEuOTQ4Ljk0OCwwLDAsMSwuNTE0LS4xMDZsLS4yMzgtLjE3N0ExLjQ1NywxLjQ1NywwLDAsMCwyMy42MTcsMjMuOTQ2WiIvPjxwYXRoIHN0eWxlPSJmaWxsOiM0OTcyOGIiIGQ9Ik0yNy43NTYsMjUuODc5Yy0uMDc0LS41MzctLjgtLjkzNS0xLjE3Mi0xLjI2NkMyNS45LDI0LDI1LjQ3MiwyMy40NiwyNC43NjEsMjIuODg3YTQuMzkxLDQuMzkxLDAsMCwxLS44NjkuNzc2bC4yMzguMTc3YS45MzIuOTMyLDAsMCwxLC42ODYuNTFMMjcuNywyNi40OTNBMi4zMzksMi4zMzksMCwwLDAsMjcuNzU2LDI1Ljg3OVoiLz48cGF0aCBzdHlsZT0iZmlsbDojZmZmIiBkPSJNMjAuNTcyLDI5LjJhLjQzOC40MzgsMCwwLDAsLjAwOS4wNzZoLjQ3OWEuMzMzLjMzMywwLDAsMSwuNjY2LDBIMjIuNXYtLjAzYy0uMjc0LS4xNDQtLjg3My0uNDU1LTEuMi0uNTkzQzIwLjg3NiwyOC40NzUsMjAuNTcyLDI5LjIsMjAuNTcyLDI5LjJaIi8+PHBhdGggc3R5bGU9ImZpbGw6I2RjZDlkOCIgZD0iTTIwLjU3MiwyOS4ycy4zLS43My43My0uNTQ4Yy4zMjIuMTM4LjkyMS40NDksMS4yLjU5My4wMS0uMjIuMDItLjQ0LjAzNC0uNjYtLjYxOC4wMzktLjk2MS0uNTU5LTEuMzk0LS42MDUtLjM3OC0uMDQxLS43LjQzNS0xLjE5LjIyOS0uMTEzLjEyNC0uMjE1LjI1OS0uMzMuMzgxYTYuMzEzLDYuMzEzLDAsMCwxLC40ODkuNjg1aC40NzZBLjQzOC40MzgsMCwwLDEsMjAuNTcyLDI5LjJaIi8+PHBhdGggc3R5bGU9ImZpbGw6I2ZmZiIgZD0iTTE0LjUxMSwyNS4xNjlhNi43MzgsNi43MzgsMCwwLDEtMi4yNjktLjQuMjgyLjI4MiwwLDAsMCwuMDE3LjQyMSw3LjY1Nyw3LjY1NywwLDAsMCwyLjE0LjU3OEExLjc0OCwxLjc0OCwwLDAsMCwxNC41MTEsMjUuMTY5WiIvPjxwYXRoIHN0eWxlPSJmaWxsOiNkY2Q5ZDgiIGQ9Ik0xNC4zNTcsMjYuMDY5YTEuMjMzLDEuMjMzLDAsMCwxLC4wNDEtLjMsNy42NTcsNy42NTcsMCwwLDEtMi4xNC0uNTc4QTQuMjM3LDQuMjM3LDAsMCwwLDE0LjM1NywyNi4wNjlaIi8+PHBhdGggc3R5bGU9ImZpbGw6I2QzMzgzMyIgZD0iTTI0LjYxMywyNy42OTNhMi45NjMsMi45NjMsMCwwLDAsLjA3My0uODcsNy4wNTcsNy4wNTcsMCwwLDAtLjItMS4zNzgsMywzLDAsMCwwLTEuMDA5LjA0OWMtLjMuMDYxLS42MDkuMTIyLS42NjkuNDg3cy4xMjIuNTQ4LS4wNjEuODUyLS40ODcuMTIyLS43OTEuM2MtLjIwNy4xMjQtLjA3Ni40NDUuMDI5LjYzOGExMi4xMzgsMTIuMTM4LDAsMCwwLDIuNDU5LjNBMS4wODEsMS4wODEsMCwwLDAsMjQuNjEzLDI3LjY5M1oiLz48cGF0aCBzdHlsZT0iZmlsbDojZDMzODMzIiBkPSJNMTUuNTYyLDI5LjIxOWMuMDE2LjA0My4wMzMuMDg4LjA0Ny4xMjhzLjAyOS4wOTMuMDQyLjEzOWwtLjAwOS0uMTE3WiIvPjxwYXRoIHN0eWxlPSJmaWxsOiNkMzM4MzMiIGQ9Ik0xOS41NjMsMjcuOTI1cS4wMS0uMjY0LjAyMS0uNTI3YTEuMzA5LDEuMzA5LDAsMCwxLS45Ni0uMDc0Yy0uOTM3LS41MTEtLjA1LS4zNi0uMzgyLTEuMDM4YTMuMjM2LDMuMjM2LDAsMCwwLTEuMjI0LS4zNjVjLTEuMjI4LDAtMS43LS4yNDctMS41NjgsMS4xNjkuMDY5Ljc2LjEzMSwxLjUxOS4xOTEsMi4yOC4xLjE4OC4xOS4zNTcuMjYyLjVhNC44MzQsNC44MzQsMCwwLDAsMS44MzMtLjU1OUEyMS4wMDcsMjEuMDA3LDAsMCwwLDE5LjU2MywyNy45MjVaIi8+PHBhdGggc3R5bGU9ImZpbGw6I2QzMzgzMyIgZD0iTTIwLjAyNywyNy4yYy4wMjEuMDg5LjA0My4xODkuMDY0LjMxaDBhLjcuNywwLDEsMCwuNDI4LTEuMzFBLjk1My45NTMsMCwwLDEsMjAuMDI3LDI3LjJaIi8+PHBhdGggc3R5bGU9ImZpbGw6I2VmM2QzYSIgZD0iTTIxLjk1MywyNy4xMzdjLjMtLjE4My42MDksMCwuNzkxLS4zczAtLjQ4Ny4wNjEtLjg1Mi4zNjUtLjQyNi42NjktLjQ4N2EzLDMsMCwwLDEsMS4wMDktLjA0OSwxLjEyNSwxLjEyNSwwLDAsMC0uMzQ4LS42NTJjLS43NDctLjQzNi0yLjA1Ni44MjUtMi42NjUsMS4wOTNsLS4wNTcuMDIzYTEuNjk0LDEuNjk0LDAsMCwxLC4xNzUuNTU4QTEuNDc1LDEuNDc1LDAsMCwxLDIyLDI2LjQyOWExLjc2MSwxLjc2MSwwLDAsMSwuMjc2LjAzM2MuMDQ1LjAwOS4wODkuMDIuMTMzLjAzMmExLjQ2MywxLjQ2MywwLDAsMSwuMjQzLjA5Miw0LjIwOSw0LjIwOSwwLDAsMC0uNzU3LjEuNy43LDAsMCwwLS4yLjA5NSw4LjYxOCw4LjYxOCwwLDAsMC0uMDM1LjlxLjE1OC4wNDUuMzIyLjA4NEMyMS44NzcsMjcuNTgyLDIxLjc0NiwyNy4yNjEsMjEuOTUzLDI3LjEzN1oiLz48cGF0aCBzdHlsZT0iZmlsbDojZWYzZDNhIiBkPSJNMTUuNjUxLDI5LjQ4NWMuMDUxLjE4My4wOTUuMzQ4LjI1My4zODUtLjA3Mi0uMTQ0LS4xNjMtLjMxMy0uMjYyLS41WiIvPjxwYXRoIHN0eWxlPSJmaWxsOiNlZjNkM2EiIGQ9Ik0xNS40NSwyNy4wODljLS4xMjktMS40MTYuMzQtMS4xNjksMS41NjgtMS4xNjlhMy4yMzYsMy4yMzYsMCwwLDEsMS4yMjQuMzY1Yy4zMzIuNjc4LS41NTUuNTI3LjM4MiwxLjAzOGExLjMwOSwxLjMwOSwwLDAsMCwuOTYuMDc0bDAtLjA2M2EzLjAzOSwzLjAzOSwwLDAsMC0uOTE2LS4yOSwzLjUsMy41LDAsMCwwLS4zNzEtLjAzNiwxLjU1NSwxLjU1NSwwLDAsMSwuMjkxLS4xMDYsMy4yODUsMy4yODUsMCwwLDAsLjkwNi0uMjgxYzAtLjA3OS4wMDYtLjE1OC4wMDktLjIzNmExLjg4MywxLjg4MywwLDAsMS0uMi0uMDI3LDEuNTY1LDEuNTY1LDAsMCwxLS4xNzctLjA0NCwxLjU4NSwxLjU4NSwwLDAsMS0uMjk0LS4xMjdjLS4xNzgtLjEtLjMzMS0uMjE2LS41MjUtLjMyMmE5LjA3Nyw5LjA3NywwLDAsMC0yLjQwOC0uODgxYy0uOTIxLS4xNzYtLjkyOSwxLjEwNS0uODksMi4wNDksMCwuMS4wMDguMTkyLjAxMy4yOGE2LjU4NSw2LjU4NSwwLDAsMCwuNTQ0LDEuOWwuMDc5LjE1QzE1LjU4MiwyOC42MDksMTUuNTE5LDI3Ljg0OSwxNS40NSwyNy4wODlaIi8+PHBhdGggc3R5bGU9ImZpbGw6I2VmM2QzYSIgZD0iTTIwLjUyLDI2LjJhMS4wMDksMS4wMDksMCwwLDAtLjU4Mi4yLDEuNywxLjcsMCwwLDAsLjAwNy40MTJjLjAxMS4wNzkuMDI4LjE1NS4wNDguMjM4bC4wMzEuMTMxLDAsLjAxN2gwQS45NTMuOTUzLDAsMCwwLDIwLjUyLDI2LjJaIi8+PHBhdGggc3R5bGU9ImZpbGw6IzIzMWYyMCIgZD0iTTE0LjE0Niw5LjE2NGExLjQ4NiwxLjQ4NiwwLDAsMC0uMTE0Ljc1OC4zOTIuMzkyLDAsMCwwLC4wNjEuMTM2LjM0OC4zNDgsMCwwLDAsLjIxLjEzNmMuNS0xLjEyLDEuMzI3LTIuMiwyLjk4NS0xLjgxNGEuNTY4LjU2OCwwLDAsMC0uMjc0LS44MjgsMS4xNDksMS4xNDksMCwwLDAtLjQtLjE0M0EyLjgxNiwyLjgxNiwwLDAsMCwxNC4xNDYsOS4xNjRaIi8+PHBhdGggc3R5bGU9ImZpbGw6IzIzMWYyMCIgZD0iTTI0LjI1MiwxMi42MjdjLS4wMzIsMS4zMjQsMi4wNDkuNjcyLDIuMzY2LS4wNjZhMTcuMTQ2LDE3LjE0NiwwLDAsMS0xLjE3Mi0yLjI5bC0uMDc5LDBoMGEzLjAzNywzLjAzNywwLDAsMCwwLC40LDMuMjM1LDMuMjM1LDAsMCwwLC4yMDkuOTEzYy4wOTUuMjU2LjIwNS41LjMuNzU2QzI1LjQ3OSwxMi41ODcsMjQuNywxMi40MywyNC4yNTIsMTIuNjI3WiIvPjxwYXRoIHN0eWxlPSJmaWxsOiMyMzFmMjAiIGQ9Ik0xOC45MzQsMTIuNzczYy0uNDg4LjQ3NC0xLjM2Ny4wOC0yLjAyLjA1LS42MjMuOTg1LDEuMjE4LDEuMTcsMi4wMDguOTM3YTEuNDA2LDEuNDA2LDAsMCwwLC42NDItLjUzNGMuMjE5LS42MTctLjIyMy0uODg3LS40NTEtMS4xMDlhNi45NTQsNi45NTQsMCwwLDEtLjk3Ny0xLjgyOSwxLjExLDEuMTEsMCwwLDAtLjA0OS40NDUsNC4wNTMsNC4wNTMsMCwwLDAsLjUyNSwxLjQ4OUMxOC43MjYsMTIuNDMyLDE4LjgzOSwxMi42MjEsMTguOTM0LDEyLjc3M1oiLz48cGF0aCBzdHlsZT0iZmlsbDojMjMxZjIwIiBkPSJNMjAuNjA1LDE4LjMxNWE2LjU4Nyw2LjU4NywwLDAsMCw0LjQ2Ni0xLjRoMGMtLjA0Ny0uMy4zNi0uODQuMjQ3LTEuMjktLjAzOS0uMTU1LS4zOTItLjM4LS42MDYtLjYxNGExNS4wMDYsMTUuMDA2LDAsMCwxLTIuNTQzLTMuNDg2Yy0uMDUzLS4xMjMtLjA4NS0uOC0uNDUyLS41My0uMDQ0LDEuNjQyLDEuMTc2LDMsMi4wODYsNC4xLjQ0NC41MzUuOTguODQxLjQ4NywxLjY3My0uOC4zLTIuMDgzLDEuMTY5LTMuMTg5Ljk3OS0uMzc5LS4wNjUtLjQ1OC0uMzY1LS41MjMtLjY2OGEyLjM3NiwyLjM3NiwwLDAsMC0uMS0uMzYzLjcxOS43MTksMCwwLDAtLjA0Ni0uMUExLjMyMiwxLjMyMiwwLDAsMCwyMC42MDUsMTguMzE1WiIvPjxwYXRoIHN0eWxlPSJmaWxsOiMyMzFmMjAiIGQ9Ik03LjYsMTQuMWEuODMyLjgzMiwwLDAsMC0uMTU5LjExMSwxLjIyMSwxLjIyMSwwLDAsMC0uMzcuNzgxLjguOCwwLDAsMCwuMTI1LS4xMDljLjE1My0uMTU2LjMxMy0uMzU3LjYtLjIxN2EyLjI5MSwyLjI5MSwwLDAsMCwuMTksMi4yMTNjMC0uNzMzLS4xMTctMS45ODcuNTA5LTEuOTUuNDM4LjAyNy41MjcuOTY0LjksMS4xNzdBMS43MTksMS43MTksMCwwLDAsOC4zNzgsMTQuMDcuOTc5Ljk3OSwwLDAsMCw3LjYsMTQuMVoiLz48cGF0aCBzdHlsZT0iZmlsbDojMjMxZjIwIiBkPSJNMjIuODY4LDE4Ljg3NWE0LjAxNiw0LjAxNiwwLDAsMCwwLDEuMDYzLDMuNDI1LDMuNDI1LDAsMCwwLDIuOTYyLTIuMjQ5aDBBOC41MzgsOC41MzgsMCwwLDEsMjIuODY4LDE4Ljg3NVoiLz48cGF0aCBzdHlsZT0iZmlsbDojMjMxZjIwIiBkPSJNMjIuNDcsMjBhNC45MzMsNC45MzMsMCwwLDAtLjA3Ny0xLjA2NiwxMC4yODUsMTAuMjg1LDAsMCwxLTQuMzUtLjU2MkMxOC41MTgsMTkuNjQ0LDIwLjY1OSwyMC4wOTIsMjIuNDcsMjBaIi8+PHBhdGggc3R5bGU9ImZpbGw6IzIzMWYyMCIgZD0iTTE3Ljg0NiwxOS4zOWgwYy0uOTE1LDAtLjE0My41MS4wMTIuNzA5YTQuNjg3LDQuNjg3LDAsMCwwLDEuMjg0LDEuNDI4LDUuMjcsNS4yNywwLDAsMCwzLjQyNi4wMTQsMS4xMTEsMS4xMTEsMCwwLDAsLjUzNi0uNjA5QzIxLjAyNiwyMC45ODIsMTguNTYzLDIxLjE4OSwxNy44NDYsMTkuMzlaIi8+PHBhdGggc3R5bGU9ImZpbGw6IzgxYjBjNCIgZD0iTTI0Ljk2LDI5LjI4YTEuNzA5LDEuNzA5LDAsMCwwLTEuMDQyLS43NTMsMS40MzMsMS40MzMsMCwwLDAtLjkxOC4xMmMtLjAwOC4yLS4wMTguNDE1LS4wMzEuNjMyWiIvPjxwYXRoIHN0eWxlPSJmaWxsOiNmMGQ2YjciIGQ9Ik0yMS45NzEsMjQuNzQ5Yy0uNjg2LjA2MS0xLjQ5My4zNzMtMi4yNTIuNDE5LS4wNjksMC0uMTM4LjAwNi0uMjA2LjAwNnMtLjEzNiwwLS4yLS4wMWExLjkzLDEuOTMsMCwwLDEtLjM5Mi0uMDc2LDEuNjY2LDEuNjY2LDAsMCwxLS4xODgtLjA3YzAsLjA1Mi0uMDcxLjAzMy0uMDgyLjA3Ni4wODUuMDY2LjE2Ny4xMjYuMjQ3LjE3OXMuMTU5LjEuMjM4LjE0M2EyLjIxOCwyLjIxOCwwLDAsMCwuNDc1LjE5LDMuMDUyLDMuMDUyLDAsMCwwLC44MTYuMDljLjEsMCwuMjEyLDAsLjMyNy0uMDA5QzIxLjE2OSwyNS4zODQsMjEuNTM3LDI1LjAzMSwyMS45NzEsMjQuNzQ5WiIvPjxwYXRoIHN0eWxlPSJmaWxsOiM4MWIwYzQiIGQ9Ik0xOS4wODYsMjkuMDQ4bC0uMzUxLjIzM2guNTI3UTE5LjE3NiwyOS4xNjIsMTkuMDg2LDI5LjA0OFoiLz48cGF0aCBzdHlsZT0iZmlsbDojMjMxZjIwIiBkPSJNNC42ODEsMjkuNzY5di0uMzM1YS4xNTMuMTUzLDAsMCwxLC4xNTMtLjE1M2guMjgzYTIwLjIzNiwyMC4yMzYsMCwwLDAtLjgxLTIuMDI2LDI0LjA3OSwyNC4wNzksMCwwLDEsNS42MS0zLjQ4NWMuMTE4LS4wNDcuODExLjgwOSwxLjIsMS4yNTdhMi4zNTMsMi4zNTMsMCwwLDAsLjI0LjI1NywyMS4wNzksMjEuMDc5LDAsMCwwLDMuMDg3LDEuNjU1LDEyLjE2NCwxMi4xNjQsMCwwLDAsLjQ3NiwxLjk0OGMuMDM5LjEyNi4wNzguMjYuMTE4LjM5NEgxNS4yYS4xNTMuMTUzLDAsMCwxLC4xNTMuMTUzdi4xNThoLjEzOWEuMTUzLjE1MywwLDAsMSwuMTUzLjE1M1YzMGgxLjY5MXYtLjI1NWEuMTUzLjE1MywwLDAsMSwuMTUzLS4xNTNoLjc4di0uMTU4YS4xNTMuMTUzLDAsMCwxLC4xNTMtLjE1M2guMzE3bC4zNTEtLjIzM3EuMDkuMTE0LjE3Ni4yMzNoLjg0M2E2LjMxMyw2LjMxMywwLDAsMC0uNDg5LS42ODVjLjExNS0uMTIyLjIxNy0uMjU2LjMzLS4zODEuNDkyLjIwNi44MTItLjI3LDEuMTktLjIyOS40MzMuMDQ2Ljc3Ni42NDQsMS4zOTQuNjA1LS4wMTQuMjItLjAyNC40NC0uMDM0LjY2di4wM2guNDc0Yy4wMTItLjIxNy4wMjMtLjQyOS4wMzEtLjYzMmExLjQzMywxLjQzMywwLDAsMSwuOTE4LS4xMiwxLjcwOSwxLjcwOSwwLDAsMSwxLjA0Mi43NTNoLjQ4MWMuMDM0LS4wNi4wNjktLjExOS4xLS4xNzktLjE0My0uMzM1LS40OTUtLjQ3Ny0uNi0uODVhNS4xMjMsNS4xMjMsMCwwLDAtLjEzLTMuOS45MzIuOTMyLDAsMCwwLS42ODYtLjUxLjk0OC45NDgsMCwwLDAtLjUxNC4xMDYsMS40NTcsMS40NTcsMCwwLDEsLjI3NS0uMjgzLDQuMzkxLDQuMzkxLDAsMCwwLC44NjktLjc3NmMuNzEyLjU3MywxLjE0MSwxLjExMiwxLjgyNCwxLjcyNS4zNy4zMzIsMS4xLjczLDEuMTcyLDEuMjY2YTIuMzM5LDIuMzM5LDAsMCwxLS4wNTQuNjE0Yy0uMDUxLjI4MS0uMTIuNTc1LS4xNTYuNzU2QTIwLjgzNiwyMC44MzYsMCwwLDEsMjcsMjkuMzA3YS4xNS4xNSwwLDAsMSwuMDcyLjEyN1YzMGguMzY4Yy4yNTgtLjgwOC41MTEtMS42MzUuNzY2LTIuNDg5YTYuMjA3LDYuMjA3LDAsMCwwLC40NzgtMi4xODdjLS4wNzgtLjYxNy0xLjA0LTEuMjY1LTEuNTQ3LTEuNzU0LS4yODEtLjI3MS0xLjU5My0xLjI2Ny0xLjY2OS0xLjY0cy41MzUtMS4xNzguNzMxLTEuNTg2YTExLjY2OSwxMS42NjksMCwwLDAsLjYyMS0xLjc4OGMxLjAzMi0zLjYyNywxLjEzNy04LjYxMS0uMzM5LTExLjU5MmExMi41NCwxMi41NCwwLDAsMC0zLjEtMy40MjhjLTIuMy0xLjc0Mi02LjU2My0xLjkzNS05LjMzOS0uOTEzYTEzLjQ4MSwxMy40ODEsMCwwLDAtMi4yLjkzOUMxMC4wMjQsNC42MjgsOC4wOTQsNS4zNDIsNy41NTUsNy40OWMtMS4zMjguNi0xLjcyOSwyLjMtMS42NjIsNC4yNjhhNi4yMjEsNi4yMjEsMCwwLDEsLjE0OSwxLjIyN2MtLjAzNy4xODQtLjI4Ni40MTktLjMzNi41MzhhNS4zLDUuMywwLDAsMCwuNjA5LDQuNTkyQTMuMjI1LDMuMjI1LDAsMCwwLDguNDY4LDE5LjVhNC41NjgsNC41NjgsMCwwLDAsLjQ0NywxLjY3MmMuMTcuMzczLjgwNSwxLjA0My41NzEsMS41MTlhNi45ODcsNi45ODcsMCwwLDEtMS40OTUuOTY2Yy0xLjE1OC42OTUtMiwxLjEyLTMuMDY2LDEuODktLjY5Mi41LTEuNzczLjU2Mi0xLjYsMS43MWExNy44NjksMTcuODY5LDAsMCwwLC44MDgsMi41MTNjLjAyNS4wNzguMDUzLjE1NS4wOC4yMzJoLjQ3Wk0xMy4wMzIsNC4zNTVhMS42NDcsMS42NDcsMCwwLDEtLjE1OS4xNjYsMTEuMzMzLDExLjMzMywwLDAsMC0uOTQxLjc3NmMtLjM3My40MTMtLjc5LDEuNTIxLTEuMjg1LDEuNjQ0QTMuODE3LDMuODE3LDAsMCwxLDkuOSw2LjkxMiwyLjEyNSwyLjEyNSwwLDAsMCw5LjQzMyw3YTcuMzg5LDcuMzg5LDAsMCwxLTEuMDg0LjMyNWMuNzQ4LTEuNjM1LDMuMDgtMi45NTcsNC45LTMuNDczLjEtLjAyOC4xODguMDQuMjcxLjEyOUMxMy41MDksNC4yNjgsMTMuMjI0LDQuMjYyLDEzLjAzMiw0LjM1NVptLTIuMzg1LDMuN2MuMywxLjUyMS0uNTYxLDMuMjU0LS4xOTIsNC44NjEuMTI1LjU0Ni41NiwxLjM5NC0uMTM0LDEuNDEzYTIuMTQ3LDIuMTQ3LDAsMCwwLTMuMTQ1LTEuNzQ3LDIuMzIxLDIuMzIxLDAsMCwwLS4yMTguMTJjLS4xLTEuMTc5LS4yNjYtMi44MzYuNTM4LTMuNzIxYTQuNDA5LDQuNDA5LDAsMCwxLDMuMDA5LTEuNDE5QTIuODEsMi44MSwwLDAsMSwxMC42NDcsOC4wNTlaTTcuMjU0LDE3LjhBMy44NTgsMy44NTgsMCwwLDEsNi4yMzIsMTUuMmEyLjAzNCwyLjAzNCwwLDAsMSwyLjItMS45NjNjLjY4NC4wNzUsMS4wMTQuNjc0LDEuMjA4LDEuMzM4LjA1NC4xODcuMS4zNzkuMTM2LjU2Ni41MDUuMDI3LDEuMjM1LS4wMjIsMS40NzQtLjQxNi0uMDM0LS45NjItLjQ4MS0xLjczMy0uNDUtMi42MTdhMTQuMDg1LDE0LjA4NSwwLDAsMSwuMzg4LTIuMjYzLDQuMTA5LDQuMTA5LDAsMCwwLS4xMjMtMi41MzJjLjc0Ny0xLjY5NSwyLjkzOS0zLjAzMiw0LjU2LTMuODQxLDIuMDA5LTEsNS4yMDctLjIsNy4xLjg2NmE0LjEyNyw0LjEyNywwLDAsMSwuNDkuMzI5LDguNjc0LDguNjc0LDAsMCwxLDEuNDc5LDEuNTYzYy4yMzQuMy40NTkuNi42ODEuODg5LS45NjctLjI4Ny0xLjguMTMyLTEuODMyLjg2NmExLjA3LDEuMDcsMCwwLDAsLjAxNi4yNDZjLjktLjgyMSwyLjQyNy0uMDA5LDIuODguOWE5LjU2Nyw5LjU2NywwLDAsMSwuNSwzLjQ0NiwxNC4yNDIsMTQuMjQyLDAsMCwxLTIuMTQ1LDguNjIxLDYuMjU4LDYuMjU4LDAsMCwxLTEuMzY1LDEuNjhjLTEuNDI1LDEtMy41OTEsMS45MDgtNS40NDYsMS4yODYtMi40NTEtLjgyMy0zLjU2NS0yLjQ1Ni00LjkxMy00LjMyNmE0LjQ2Niw0LjQ2NiwwLDAsMCwxLjQ3MiwyLjY1Niw2LjY0OCw2LjY0OCwwLDAsMCwyLjE3NiwxLjc3OGMtLjY3My0uMTU4LTEuNy0uMjA4LTEuOTg1LjRhMTUuNDY1LDE1LjQ2NSwwLDAsMS0xLjU0OS0uMTYyLDMuMTgxLDMuMTgxLDAsMCwxLTIuMjItMS4xNjYsMTEuMzUxLDExLjM1MSwwLDAsMS0xLjQ0NS0zLjM2NSwzLjgzNywzLjgzNywwLDAsMS0uMTI1LS44MzJjLjA4OC0uNDc4LjkzOS0uNjg3LjYtMS4zNTUtLjYxOC0uMDA2LS43NTcuNTYyLTEuMzI0LjYxOEExLjczNCwxLjczNCwwLDAsMSw3LjI1NCwxNy44Wm0xMi43Nyw5LjM4LS4wMzEtLjEzMWMtLjAyLS4wODMtLjAzNi0uMTU5LS4wNDgtLjIzOGExLjcsMS43LDAsMCwxLS4wMDctLjQxMiwxLjAwOSwxLjAwOSwwLDAsMSwuNTgyLS4yLjcuNywwLDEsMS0uNDI4LDEuMzFjLS4wMjEtLjEyMS0uMDQzLS4yMjEtLjA2NC0uMzFabS03Ljc4Mi0yLjQxOWE2LjczOCw2LjczOCwwLDAsMCwyLjI2OS40LDEuNzQ4LDEuNzQ4LDAsMCwxLS4xMTIuNiwxLjIzMywxLjIzMywwLDAsMC0uMDQxLjMsNC4yMzcsNC4yMzcsMCwwLDEtMi4xLS44ODJBLjI4Mi4yODIsMCwwLDEsMTIuMjQyLDI0Ljc2NlptNy4zNjcuODM5YTIuMjE4LDIuMjE4LDAsMCwxLS40NzUtLjE5Yy0uMDc4LS4wNDItLjE1Ny0uMDktLjIzOC0uMTQzcy0uMTYyLS4xMTMtLjI0Ny0uMTc5Yy4wMTEtLjA0My4wNzktLjAyNC4wODItLjA3NmExLjY2NiwxLjY2NiwwLDAsMCwuMTg4LjA3LDEuOTMsMS45MywwLDAsMCwuMzkyLjA3NmMuMDY3LjAwNi4xMzQuMDA5LjIuMDFzLjEzNywwLC4yMDYtLjAwNmMuNzU5LS4wNDYsMS41NjYtLjM1OCwyLjI1Mi0uNDE5LS40MzMuMjgzLS44LjYzNi0xLjIxOC45MzgtLjExNS4wMDYtLjIyNC4wMDktLjMyNy4wMDlBMy4wNTIsMy4wNTIsMCwwLDEsMTkuNjA5LDI1LjYwNVptLTEuODcyLDMuNzA2YTQuODM0LDQuODM0LDAsMCwxLTEuODMzLjU1OWMtLjE1OC0uMDM3LS4yLS4yLS4yNTMtLjM4NS0uMDEzLS4wNDYtLjAyNi0uMDkyLS4wNDItLjEzOXMtLjAzLS4wODUtLjA0Ny0uMTI4YTYuNTg1LDYuNTg1LDAsMCwxLS41NDQtMS45YzAtLjA4OC0uMDA5LS4xODItLjAxMy0uMjgtLjAzOS0uOTQ0LS4wMzEtMi4yMjUuODktMi4wNDlhOS4wNzcsOS4wNzcsMCwwLDEsMi40MDguODgxYy4xOTQuMTA2LjM0Ny4yMjUuNTI1LjMyMmExLjU4NSwxLjU4NSwwLDAsMCwuMjk0LjEyNywxLjU2NSwxLjU2NSwwLDAsMCwuMTc3LjA0NCwxLjg4MywxLjg4MywwLDAsMCwuMi4wMjdjMCwuMDc4LS4wMDYuMTU3LS4wMDkuMjM2YTMuMjg1LDMuMjg1LDAsMCwxLS45MDYuMjgxLDEuNTU1LDEuNTU1LDAsMCwwLS4yOTEuMTA2LDMuNSwzLjUsMCwwLDEsLjM3MS4wMzYsMy4wMzksMy4wMzksMCwwLDEsLjkxNi4yOWwwLC4wNjNxLS4wMS4yNjQtLjAyMS41MjdBMjEuMDA3LDIxLjAwNywwLDAsMSwxNy43MzcsMjkuMzExWm00LjI0NS0xLjUzNnEtLjE2NC0uMDM5LS4zMjItLjA4NGE4LjYxOCw4LjYxOCwwLDAsMSwuMDM1LS45LjcuNywwLDAsMSwuMi0uMDk1LDQuMjA5LDQuMjA5LDAsMCwxLC43NTctLjEsMS40NjMsMS40NjMsMCwwLDAtLjI0My0uMDkyYy0uMDQzLS4wMTItLjA4OC0uMDIzLS4xMzMtLjAzMkExLjc2MSwxLjc2MSwwLDAsMCwyMiwyNi40MjlhMS40NzUsMS40NzUsMCwwLDAtLjQwNy4wMzgsMS42OTQsMS42OTQsMCwwLDAtLjE3NS0uNTU4bC4wNTctLjAyM2MuNjA5LS4yNjgsMS45MTgtMS41MjksMi42NjUtMS4wOTNhMS4xMjUsMS4xMjUsMCwwLDEsLjM0OC42NTIsNy4wNTcsNy4wNTcsMCwwLDEsLjIsMS4zNzgsMi45NjMsMi45NjMsMCwwLDEtLjA3My44NywxLjA4MSwxLjA4MSwwLDAsMS0uMTcyLjM4MWgwQTEyLjEzOCwxMi4xMzgsMCwwLDEsMjEuOTgyLDI3Ljc3NFoiLz48cGF0aCBzdHlsZT0iZmlsbDojZjdlNGNkIiBkPSJNMTcuNTMsMTguODYyYy0uNjE2LS4zLTEuMDU2LS4xMzUtMS4xMzYtLjAyOC0uMTUyLjIuMTYzLDEuMzA2LjE2MywxLjMwNmwuMy4wNjFDMTYuOCwxOC45ODQsMTcuNTMsMTguODYyLDE3LjUzLDE4Ljg2MloiLz48cGF0aCBzdHlsZT0iZmlsbDojMWQxOTE5IiBkPSJNMjEuMzkzLDI4Ljk2MWEuMzM0LjMzNCwwLDAsMC0uMzMzLjMxOWguNjY2QS4zMzQuMzM0LDAsMCwwLDIxLjM5MywyOC45NjFaIi8+PHBhdGggc3R5bGU9ImZpbGw6IzIzMWYyMCIgZD0iTTE1LjY0MiwyOS43NDVhLjE1My4xNTMsMCwwLDAtLjE1My0uMTUzaC0uMTM5di4xNzdhLjE1My4xNTMsMCwwLDEtLjE1My4xNTNINC44MzRhLjE1My4xNTMsMCwwLDEtLjE1My0uMTUzVjMwSDE1LjY0MloiLz48cGF0aCBzdHlsZT0iZmlsbDojMjMxZjIwIiBkPSJNMjYuOTE4LDI5LjkyMmgtOC41YS4xNTMuMTUzLDAsMCwxLS4xNTMtLjE1M3YtLjE3N2gtLjc4YS4xNTMuMTUzLDAsMCwwLS4xNTMuMTUzVjMwaDkuNzM3di0uMjMxQS4xNTMuMTUzLDAsMCwxLDI2LjkxOCwyOS45MjJaIi8+PHBhdGggc3R5bGU9ImZpbGw6IzIzMWYyMCIgZD0iTTQuODM0LDI5LjkyMkgxNS4yYS4xNTMuMTUzLDAsMCwwLC4xNTMtLjE1M3YtLjMzNWEuMTUzLjE1MywwLDAsMC0uMTUzLS4xNTNINC44MzRhLjE1My4xNTMsMCwwLDAtLjE1My4xNTN2LjMzNUEuMTUzLjE1MywwLDAsMCw0LjgzNCwyOS45MjJaIi8+PHBhdGggc3R5bGU9ImZpbGw6IzIzMWYyMCIgZD0iTTE4LjI2NiwyOS43NjlhLjE1My4xNTMsMCwwLDAsLjE1My4xNTNoOC41YS4xNTMuMTUzLDAsMCwwLC4xNTMtLjE1M3YtLjMzNUEuMTUuMTUsMCwwLDAsMjcsMjkuMzA3YS4xNDkuMTQ5LDAsMCwwLS4wODEtLjAyNmgtOC41YS4xNTMuMTUzLDAsMCwwLS4xNTMuMTUzdi4zMzVaIi8+PC9zdmc+;fontColor=#FFCCE6;" vertex="1" parent="1">
          <mxGeometry x="754" y="230.5" width="73" height="73" as="geometry" />
        </mxCell>
        <mxCell id="pqh-3Lmt7X_MS8Hs65BD-34" value="&lt;span style=&quot;&quot;&gt;jenkins.d3vops.me&lt;/span&gt;" style="text;html=1;align=center;verticalAlign=middle;resizable=0;points=[];autosize=1;fontColor=#6666FF;" vertex="1" parent="1">
          <mxGeometry x="730.5" y="323" width="120" height="30" as="geometry" />
        </mxCell>
        <mxCell id="pqh-3Lmt7X_MS8Hs65BD-35" value="" style="image;sketch=0;aspect=fixed;html=1;points=[];align=center;fontSize=12;image=img/lib/mscae/Docker.svg;" vertex="1" parent="1">
          <mxGeometry x="570" y="220" width="36.59" height="30" as="geometry" />
        </mxCell>
        <mxCell id="pqh-3Lmt7X_MS8Hs65BD-36" value="" style="image;sketch=0;aspect=fixed;html=1;points=[];align=center;fontSize=12;image=img/lib/mscae/Docker.svg;" vertex="1" parent="1">
          <mxGeometry x="820" y="220" width="36.59" height="30" as="geometry" />
        </mxCell>
      </root>
    </mxGraphModel>
  </diagram>
</mxfile>
